<?xml version="1.0" encoding="UTF-8"?>
<!DOCTYPE svg PUBLIC "-//W3C//DTD SVG 1.1//EN" "http://www.w3.org/Graphics/SVG/1.1/DTD/svg11.dtd">
<!-- Creator: CorelDRAW 2019 (64-Bit) -->
<svg xmlns="http://www.w3.org/2000/svg" xml:space="preserve" width="67mm" height="32mm" version="1.1" style="shape-rendering:geometricPrecision; text-rendering:geometricPrecision; image-rendering:optimizeQuality; fill-rule:evenodd; clip-rule:evenodd"
viewBox="0 0 6700 3200"
 xmlns:xlink="http://www.w3.org/1999/xlink">
 <defs>
  <style type="text/css">
   <![CDATA[
    .fil0 {fill:#0062DB}
    .fil1 {fill:#FF0084}
   ]]>
  </style>
 </defs>
 <g id="Слой_x0020_1">
  <metadata id="CorelCorpID_0Corel-Layer"/>
  <g id="_2299578132480">
   <path class="fil0" d="M4148.92 669.41l0 1861.58c0,25.54 7.71,33.25 33.24,33.25 488.17,0 422.11,35.97 421.12,-132.93l-0.04 -509.76c29.58,21.67 308.55,555.68 354.58,642.69l531.89 0c-4.39,-52.72 -197.83,-318.88 -230.49,-367.88 -28.07,-42.1 -237.86,-340.7 -234.91,-363.46 3.86,-29.81 417.61,-555 432.15,-609.45l-487.55 0c-62.49,93.32 -326.44,514.22 -365.67,542.96l0.09 -1008.45c1.48,-156.02 62.38,-121.8 -421.17,-121.8 -25.53,0 -33.24,7.71 -33.24,33.25z"/>
   <path class="fil0" d="M359.25 1079.4l0 144.05 -265.93 0 0 332.43 254.86 0 0 975.11c0,25.54 7.7,33.25 33.24,33.25l387.83 0c25.53,0 33.24,-7.71 33.24,-33.25l0 -975.11 310.27 0 0 -332.43 -310.27 0c0,-352.93 95.71,-270.47 299.18,-265.94 0,-116 22.17,-205.35 22.17,-321.35 -136.74,-11.38 -90.71,-22.16 -288.11,-22.16 -294.56,0 -476.48,175.28 -476.48,465.4z"/>
   <path class="fil0" d="M2863.54 1866.14c0,443.62 301.86,720.26 698.09,720.26 143.8,0 301.76,-3.35 421.08,-66.48l-11.08 -332.43c-42.94,3.57 -69.98,23.83 -119.38,35.76 -477.41,115.31 -632.73,-305.57 -446.24,-568.14 94.6,-133.18 341.53,-139.47 478.39,-67.41 25.21,13.28 20.17,15.7 53.98,23.58 0,-76.63 18.14,-267.59 33.25,-332.43 -228.64,-153.1 -685.65,-93.25 -883.85,91.27 -123.02,114.53 -224.24,264.41 -224.24,496.02z"/>
   <path class="fil0" d="M1334.37 669.41l0 1861.58c0,25.54 7.72,33.25 33.25,33.25l387.83 0c25.53,0 33.24,-7.71 33.24,-33.25l0 -1861.58c0,-25.54 -7.71,-33.25 -33.24,-33.25l-387.83 0c-25.53,0 -33.25,7.71 -33.25,33.25z"/>
   <path class="fil1" d="M6065.91 1445.07l0 -221.62 -409.99 0 0 1340.79 443.24 0c0,-201.13 -23.45,-661.32 51.32,-812.98 90.52,-183.61 208.35,-162.14 369.75,-162.14 29.93,0 30.55,5.29 55.4,11.08l12.74 -275.44c10,-84.73 60.67,-134.55 -145.71,-134.55 -92.77,0 -178.73,38.4 -233.02,77.24 -86.6,61.95 -102.98,130.74 -143.73,177.62z"/>
   <path class="fil0" d="M2154.36 2530.99c0,25.54 7.71,33.25 33.24,33.25l387.83 0c25.53,0 33.25,-7.71 33.25,-33.25l0 -1307.54 -454.32 0 0 1307.54z"/>
   <polygon class="fil0" points="2154.36,1012.91 2608.68,1012.91 2608.68,669.41 2154.36,669.41 "/>
  </g>
 </g>
</svg>
