<?xml version="1.0" encoding="UTF-8"?>
<!DOCTYPE svg PUBLIC "-//W3C//DTD SVG 1.1//EN" "http://www.w3.org/Graphics/SVG/1.1/DTD/svg11.dtd">
<!-- Creator: CorelDRAW 2019 (64-Bit) -->
<svg xmlns="http://www.w3.org/2000/svg" xml:space="preserve" width="17.526mm" height="17.526mm" version="1.1" style="shape-rendering:geometricPrecision; text-rendering:geometricPrecision; image-rendering:optimizeQuality; fill-rule:evenodd; clip-rule:evenodd"
viewBox="0 0 1752.6 1752.6"
 xmlns:xlink="http://www.w3.org/1999/xlink">
 <defs>
  <style type="text/css">
   <![CDATA[
    .fil0 {fill:#FEFEFE}
   ]]>
  </style>
 </defs>
 <g id="Слой_x0020_1">
  <metadata id="CorelCorpID_0Corel-Layer"/>
  <g id="_3019538694384">
   <g id="_3019739475392">
    <path class="fil0" d="M736.05 671.92c0,-115.61 98.96,-96.98 180.28,-96.98 45.07,0 87.21,37.22 87.21,80.36l0 16.66c0,45.07 -44.11,80.36 -90.13,80.36l-87.21 0c-46.07,0 -90.14,-35.29 -90.14,-80.36l0 -0.04zm23.51 -191.04c-99.95,23.51 -181.27,186.16 -91.14,298.85 11.78,13.7 23.51,26.44 39.19,38.22 25.48,19.59 29.4,16.66 51.92,27.44l0 699.57c0,42.14 5.89,68.58 25.48,91.14 66.62,74.47 195.97,45.07 194.97,-87.21l0 -703.49c40.18,-18.63 53.88,-21.55 90.14,-63.69 55.84,-66.63 49.95,-167.54 0.96,-234.2 -18.63,-26.44 -57.81,-58.81 -91.14,-66.62 0,-83.28 0,-167.54 0,-250.82 0,-47.99 0,-74.47 -20.59,-102.87 -46.07,-58.81 -130.32,-59.77 -177.35,-0.96 -22.55,27.44 -22.55,54.88 -22.55,103.87 0,83.28 0,167.53 0,250.82l0.11 -0.04z"/>
    <path class="fil0" d="M307.89 936.48l-110.72 0c-70.54,0 -108.76,-101.91 -52.92,-153.83 35.29,-30.37 93.1,-23.51 143.05,-23.51 96.99,0 126.4,94.06 78.4,147.94 -12.74,13.7 -33.32,29.4 -57.81,29.4zm-163.64 -271.41c-18.63,8.81 -32.33,11.78 -48.99,24.49 -14.7,11.77 -27.44,21.55 -38.22,35.29 -36.25,47.03 -44.11,76.43 -44.11,134.24 0,41.14 22.55,86.21 41.14,109.72 16.66,19.59 59.77,58.81 90.13,60.73 0,53.89 -3.93,527.15 0,555.56 5.89,46.07 52.92,90.13 96.99,90.13 36.25,0 53.88,0 85.25,-27.44 54.88,-47.03 35.29,-156.76 35.29,-246.94 0,-123.46 0,-246.93 0,-371.35 48.99,-3.93 130.31,-86.22 130.31,-170.5 0,-76.43 -22.55,-122.46 -80.36,-167.53 -16.66,-13.7 -30.37,-16.66 -49.95,-26.44 0,-112.69 0,-225.34 0,-338.03 0,-79.36 17.63,-174.42 -36.25,-218.49 -52.92,-41.14 -122.47,-34.29 -162.65,19.59 -32.33,44.11 -18.63,127.4 -18.63,195.98 0,113.65 0,227.3 0,340.96l0.04 0.03z"/>
    <path class="fil0" d="M1351.38 1036.43c0,-50.96 40.18,-90.13 80.36,-90.13l110.72 0c96.98,0 125.43,177.34 -26.44,177.34 -59.77,0 -107.77,7.85 -144.02,-34.29 -10.78,-12.74 -20.59,-33.33 -20.59,-52.92l-0.03 0zm375.25 -13.74l0 27.44c-1.96,21.55 -6.85,43.1 -15.66,60.74 -31.37,65.66 -60.74,80.36 -114.66,105.84 0,93.1 0,185.19 0,278.25 0,48.99 5.89,96.03 -13.7,127.39 -43.1,70.55 -144.01,75.44 -191.04,-2.92 -18.63,-30.37 -12.74,-77.39 -12.74,-124.42 0,-93.1 0,-185.19 0,-278.26 -9.81,-4.89 -17.63,-6.85 -28.4,-11.78 -25.48,-13.7 -43.11,-30.37 -61.73,-51.92 -54.89,-66.62 -54.89,-174.42 0.96,-239.07 15.66,-19.59 58.81,-58.81 89.17,-61.73l0 -652.55c0,-41.14 7.85,-57.81 25.48,-80.36 37.22,-47.03 126.39,-50.96 167.53,1.96 19.59,25.48 24.48,38.22 24.48,82.32l0 648.62c31.37,2.92 69.58,38.22 89.18,61.73 23.51,28.4 38.22,68.58 41.14,108.76l0 -0.04z"/>
   </g>
   <g id="_3019739531936">
    <g id="_3019529426224">
     <path class="fil0" d="M738.01 676.84c0,-114.65 98.96,-96.98 180.28,-96.98 44.11,0 87.21,37.22 87.21,80.36l0 16.66c0,45.07 -44.11,80.36 -90.13,80.36l-87.21 0c-46.07,0 -90.14,-35.29 -90.14,-80.36l0 -0.04zm23.51 -191.08c-100.91,23.51 -181.27,186.16 -91.14,298.85 11.78,13.7 23.51,26.44 38.22,38.22 26.45,19.59 29.4,16.66 52.92,27.44l0 699.57c-0.96,42.14 5.89,68.59 25.48,91.14 66.63,74.48 195.98,45.08 194.98,-87.21l0 -703.49c40.18,-18.63 52.92,-21.55 89.17,-63.69 56.84,-66.63 49.95,-167.54 1.96,-234.2 -19.59,-26.44 -57.81,-58.81 -91.14,-66.62 0,-83.28 0,-166.57 0,-250.82 0,-47.03 0,-74.47 -21.55,-101.91 -45.07,-59.77 -129.35,-60.73 -176.38,-1.96 -22.55,27.44 -22.55,54.88 -22.55,103.87 0,84.25 0,167.54 0,250.82l0 0 0.03 0z"/>
     <path class="fil0" d="M309.85 941.37l-110.72 0c-71.51,0 -109.72,-101.91 -52.92,-152.87 34.29,-31.37 92.1,-24.48 143.05,-24.48 96.03,0 125.44,94.06 77.4,147.94 -11.78,13.7 -32.33,29.4 -56.84,29.4l0.03 0zm-164.6 -271.41c-18.63,8.82 -31.37,11.78 -48.99,24.49 -14.7,11.78 -27.44,21.55 -38.22,36.25 -35.29,47.03 -43.1,75.43 -43.1,133.24 0,41.14 21.55,86.21 41.14,109.73 16.66,19.59 59.77,58.8 89.17,60.73 0,53.88 -2.92,527.15 0.96,555.55 4.89,46.07 52.92,91.14 96.02,91.14 36.25,0 54.88,-0.96 86.22,-28.4 54.88,-47.03 34.29,-156.76 34.29,-246.93 0,-123.47 0,-246.94 0,-371.36 48.99,-3.93 130.31,-86.22 130.31,-170.5 0,-76.43 -22.55,-122.46 -79.36,-167.53 -17.63,-13.7 -31.37,-16.66 -50.96,-26.44 0,-112.69 0,-225.34 0,-338.03 0,-79.36 17.63,-174.42 -36.25,-217.52 -51.93,-42.14 -121.51,-35.29 -161.69,19.59 -32.33,43.1 -19.59,126.39 -19.59,194.97 0,113.65 0,227.31 0,340.96l0 0 0.04 0.07z"/>
     <path class="fil0" d="M1353.35 1041.31c0,-50.96 40.18,-90.13 80.36,-90.13l110.72 0c96.02,0 125.43,177.34 -27.44,177.34 -59.77,0 -107.76,7.85 -143.05,-34.29 -11.78,-12.74 -20.59,-32.33 -20.59,-52.92zm375.25 -13.7l0 27.44c-1.96,21.55 -6.85,43.1 -15.66,61.73 -32.34,64.66 -60.74,79.36 -115.62,105.84 0,92.11 0,185.2 0,277.3 0,48.99 5.89,96.02 -12.74,127.39 -43.1,70.54 -144.01,75.43 -192.04,-2.92 -17.63,-29.4 -12.74,-77.39 -12.74,-124.42 0,-92.11 0,-185.2 0,-277.3 -8.81,-5.89 -17.63,-6.85 -27.44,-12.74 -25.48,-13.7 -44.11,-30.37 -61.73,-51.92 -54.88,-66.62 -54.88,-174.43 0,-239.08 16.66,-19.59 59.77,-58.81 89.17,-61.73l0 -652.54c0,-41.15 7.85,-56.84 26.44,-80.36 37.22,-47.04 125.43,-50.97 166.57,1.96 19.6,25.48 25.48,38.22 24.49,82.32l0 648.61c31.37,2.92 70.54,38.22 90.13,61.73 23.51,28.4 38.22,68.58 41.14,108.76l0 0 0.04 -0.07z"/>
    </g>
   </g>
  </g>
 </g>
</svg>
