<?xml version="1.0" encoding="UTF-8"?>
<!DOCTYPE svg PUBLIC "-//W3C//DTD SVG 1.1//EN" "http://www.w3.org/Graphics/SVG/1.1/DTD/svg11.dtd">
<!-- Creator: CorelDRAW 2019 (64-Bit) -->
<svg xmlns="http://www.w3.org/2000/svg" xml:space="preserve" width="472px" height="472px" version="1.1" style="shape-rendering:geometricPrecision; text-rendering:geometricPrecision; image-rendering:optimizeQuality; fill-rule:evenodd; clip-rule:evenodd"
viewBox="0 0 472 472"
 xmlns:xlink="http://www.w3.org/1999/xlink">
 <defs>
  <style type="text/css">
   <![CDATA[
    .fil0 {fill:#FEFEFE}
   ]]>
  </style>
 </defs>
 <g id="Слой_x0020_1">
  <metadata id="CorelCorpID_0Corel-Layer"/>
  <g id="_2275202663136">
   <path class="fil0" d="M44.96 275.76l0 -77.96c0,-12.62 5.2,-19.96 15.91,-21.69 7.88,-1.27 43.52,-0.65 56.02,-0.58 6.38,0.03 3.43,1.32 11.73,-7.3l74.23 -77.51c4.15,-3.66 15.09,-17.28 20.77,-17.28 3.97,0 5.1,7.71 5.1,12.06l0 303.02c0,4 -0.49,11.6 -5.56,11.6 -4.66,0 -16.19,-13.14 -20.31,-17.28l-7.2 -6.73c-1.18,-1.17 -1.32,-1.55 -2.33,-2.77 -2.6,-3.11 -6.52,-6.55 -9.49,-9.53 -3.18,-3.18 -6.34,-5.82 -9.13,-9.43 -2.38,-3.09 -6.58,-6.7 -9.44,-9.59l-18.53 -19.52c-3.21,-3.83 -6.22,-6.33 -8.89,-9.67 -1.25,-1.57 -3.09,-3.2 -4.59,-4.69l-9.26 -9.77c-2.56,-3.08 -1.22,-3.17 -6.63,-3.12 -12.62,0.14 -47.34,0.54 -56.03,-0.57 -11.28,-1.45 -16.37,-8.78 -16.37,-21.69zm182 -247.8l5.47 0c5.53,0.34 10.81,1.73 15.13,4.36 13.15,8.01 18.75,20.99 18.75,38.33l0 332.72c0,12.86 -3.45,21.94 -9.07,29.44 -4.73,6.31 -14.92,12.79 -25.73,12.79l-4.64 0c-12.25,0 -24.73,-8.2 -30.98,-14.5l-22.5 -22.97c-2.14,-2.13 -3.47,-3.96 -5.57,-6.04l-38.97 -39.91c-3.63,-3.92 -7.57,-7.55 -11.38,-11.36l-14.11 -14.66c-1.55,-1.43 -1.75,-1.05 -4.55,-1.02l-33.89 0.02c-16.95,0 -29.27,1.46 -41,-4.48 -8.99,-4.56 -16.08,-15.57 -16.08,-28.94l0 -130.39c0,-13.32 7,-25.4 18.36,-29.9 3.42,-1.36 8.45,-2.84 12.73,-3.05 10.12,-0.51 21.73,0 32.02,0 10.52,0 21.04,0 31.56,0 2.39,-3.57 30.02,-31.19 36.08,-37.24 1.25,-1.25 2.57,-2.4 3.69,-3.73 1.34,-1.6 1.77,-2.2 3.26,-3.69l50.82 -51.74c3.82,-3.83 3.65,-3.42 7.89,-6.49 5.99,-4.34 14.35,-7.05 22.71,-7.55z"/>
   <path class="fil0" d="M363.3 82.25c0,9.63 4.08,12.94 9.36,17.09l12.05 13.94c15.7,19.65 28.62,45.46 34.74,70.13 14.32,57.82 2.11,113.63 -29.97,157.97l-16.78 20.35 -11.37 10.9c-2.85,2.69 -11.49,5.9 -11.49,18.21 0,5.57 2.53,10.25 5.32,13.24 7.2,7.72 20.18,7.95 28.04,-0.29 0.03,-0.03 0.52,-0.59 0.66,-0.74 2.68,-2.98 3.58,-3.16 6.47,-6.06 3.75,-3.77 11.03,-10.61 14.2,-14.57l3.71 -4.17c7.25,-8.99 13.12,-15.88 19.36,-26.12 15.04,-24.67 27.58,-53.88 32.09,-83.46 1.62,-10.65 2.61,-21.31 2.91,-31.93l0 -14.04c-0.73,-25.21 -5.47,-50.02 -14.85,-73.62 -1.43,-3.6 -2.63,-6.99 -4.33,-10.52 -9.69,-20.16 -13.76,-27.93 -27.89,-46.83 -1.24,-1.66 -2.08,-2.55 -3.31,-4.1 -1.18,-1.49 -2.08,-2.79 -3.33,-4.1 -3.56,-3.73 -7.26,-7.87 -10.12,-12.15 -10.13,-15.11 -35.47,-8.06 -35.47,10.87z"/>
   <path class="fil0" d="M296.01 146.76c0,17.1 5.21,14.28 12.46,23.26 4.89,6.06 5.92,7 10.01,13.66l2.9 4.99c7.83,14.09 13.61,32.37 13.61,49.5 0,13.64 -0.56,23.1 -4.81,36.03 -4,12.18 -9.16,22.73 -16.6,32.58l-7.5 9.21c-4.58,5.48 -12.85,10.01 -12.85,20.09 0,5.73 2.08,10.11 4.77,13.33 5.78,6.93 17.25,8.2 24.91,3.37l5.94 -4.74c1.93,-1.79 3.63,-3.5 4.74,-5.93 1.37,-3.01 1.59,-2.75 4.54,-6.13 21.85,-25.07 34.45,-60.65 34.45,-94.1 0,-27.63 -8.46,-55.1 -20.04,-74.16 -6.87,-11.29 -7.69,-11.67 -15.23,-21.43 -0.86,-1.11 -1.62,-1.67 -2.4,-2.7 -0.95,-1.25 -1.3,-2.92 -4.08,-6.6 -5.73,-7.58 -20.68,-9.94 -28.92,-1.97 -2.26,2.19 -5.9,7.6 -5.9,11.74z"/>
  </g>
 </g>
</svg>
