<?xml version="1.0" encoding="UTF-8"?>
<!DOCTYPE svg PUBLIC "-//W3C//DTD SVG 1.1//EN" "http://www.w3.org/Graphics/SVG/1.1/DTD/svg11.dtd">
<!-- Creator: CorelDRAW 2019 (64-Bit) -->
<svg xmlns="http://www.w3.org/2000/svg" xml:space="preserve" width="30px" height="30px" version="1.1" style="shape-rendering:geometricPrecision; text-rendering:geometricPrecision; image-rendering:optimizeQuality; fill-rule:evenodd; clip-rule:evenodd"
viewBox="0 0 30 30"
 xmlns:xlink="http://www.w3.org/1999/xlink">
 <defs>
  <style type="text/css">
   <![CDATA[
    .fil0 {fill:#2B2A29}
   ]]>
  </style>
 </defs>
 <g id="Слой_x0020_1">
  <metadata id="CorelCorpID_0Corel-Layer"/>
  <path class="fil0" d="M2.76 7.93c0.24,-0.3 0.55,-0.71 0.8,-1.01 0.76,-0.81 0.86,-0.91 1.54,-1.51 0.2,-0.16 0.44,-0.35 0.68,-0.53 -1.74,1.4 -1.96,2.94 -0.36,3.89 -0.01,0 -0.01,0 -0.01,0 2.24,1.28 7.13,1 10.99,-0.63 3.74,-1.58 5.12,-3.83 3.28,-5.18 -1.63,-0.28 -3.56,-0.32 -5.6,-0.06l-0.21 -0.33 0.17 -0.55c1.2,-0.1 2.35,-0.08 3.33,0.08 0.24,0.04 0.55,0.11 0.79,0.15 0.45,0.11 0.7,0.17 0.99,0.26 0.31,0.09 0.57,0.17 1.02,0.33 0.44,0.16 0.63,0.24 0.98,0.4 0.4,0.17 0.78,0.37 1.15,0.58 2.94,1.75 1.11,4.94 -4.08,7.13 -5.17,2.18 -11.77,2.52 -14.72,0.79 0,0 -0.01,0 -0.01,0l0 0c-1.61,-0.97 -1.78,-2.37 -0.73,-3.81zm13.46 12.23l-0.04 -1.96 -1.48 -1.56c-4.87,1.05 -9.67,0.82 -12.34,-0.66 -0.01,-0.01 -0.03,-0.02 -0.04,-0.03 -1.51,-0.88 -1.88,-2.02 -1.77,-3.25 -0.35,1.81 -0.38,2.46 -0.33,4 0.07,0.97 0.66,1.86 1.84,2.56l0.01 0.01c2.84,1.67 8.77,2.04 14.15,0.89zm6.16 2.25c-6.88,2.61 -15.5,2.77 -19.25,0.35 0.41,0.94 0.96,1.81 1.63,2.59 3.44,2.22 11.35,2.08 17.67,-0.32 3.7,-1.4 6.03,-3.27 6.64,-5.02l0.18 -0.53c0.41,-1.33 0.48,-2.44 0.55,-3.43 -0.08,2.15 -2.75,4.59 -7.42,6.36zm-15.2 5.03c0.22,0.2 0.9,0.99 4.35,1.86 0.93,0.2 3.27,0.82 7.61,-0.09l0.02 -0.37 -0.34 -0.51c-4.02,0.9 -8.49,0.6 -11.64,-0.89zm9.95 -15.54l3.66 2.62c0,0 0.79,0.54 0.05,0.91 -0.74,0.37 -2.63,1.28 -2.63,1.28l-1.87 -0.66 -0.93 0.39 1.65 1.36 0.01 2.11 0.97 -0.4 0.65 -1.79c0,0 1.97,-0.72 2.76,-0.99 0.79,-0.26 0.68,0.64 0.68,0.64l-0.39 4.33 1.29 -0.54 2.13 -5.84c0,0 1.12,-0.52 1.92,-0.97 0.79,-0.46 1.06,-1.21 1.06,-1.21 0,0 -0.77,-0.32 -1.66,-0.07 -0.89,0.26 -2.05,0.7 -2.05,0.7l-6.01 -2.41 -1.29 0.54zm-7.74 -8.31l2.48 1.87 0.68 -0.09 -1.35 -1.68c0,0 -0.3,-0.35 0.1,-0.43 0.4,-0.09 1.41,-0.28 1.41,-0.28l0.76 0.57 0.51 -0.07 -0.58 -0.87 0.3 -0.97 -0.49 0.07 -0.59 0.74c0,0 -1.02,0.09 -1.43,0.12 -0.4,0.03 -0.23,-0.38 -0.23,-0.38l0.78 -1.99 -0.68 0.1 -1.8 2.48c0,0 -0.6,0.1 -1.04,0.22 -0.43,0.11 -0.66,0.43 -0.66,0.43 0,0 0.32,0.24 0.77,0.24 0.45,-0.01 1.06,-0.08 1.06,-0.08zm12.28 24.07l-1.61 -0.8 -0.37 0.12 0.95 0.81c0,0 0.21,0.16 -0.01,0.25 -0.21,0.09 -0.75,0.3 -0.75,0.3l-0.45 -0.19 -0.27 0.09 0.37 0.38 -0.03 0.55 0.28 -0.09 0.2 -0.45c0,0 0.57,-0.16 0.79,-0.21 0.23,-0.06 0.18,0.19 0.18,0.19l-0.21 1.19 0.37 -0.13 0.73 -1.57c0,0 0.32,-0.12 0.55,-0.23 0.23,-0.11 0.32,-0.31 0.32,-0.31 0,0 -0.2,-0.11 -0.46,-0.05 -0.25,0.05 -0.58,0.15 -0.58,0.15z"/>
 </g>
</svg>
