<?xml version="1.0" encoding="UTF-8"?>
<!DOCTYPE svg PUBLIC "-//W3C//DTD SVG 1.1//EN" "http://www.w3.org/Graphics/SVG/1.1/DTD/svg11.dtd">
<!-- Creator: CorelDRAW 2019 (64-Bit) -->
<svg xmlns="http://www.w3.org/2000/svg" xml:space="preserve" width="16px" height="16px" version="1.1" style="shape-rendering:geometricPrecision; text-rendering:geometricPrecision; image-rendering:optimizeQuality; fill-rule:evenodd; clip-rule:evenodd"
viewBox="0 0 16 16"
 xmlns:xlink="http://www.w3.org/1999/xlink">
 <defs>
  <style type="text/css">
   <![CDATA[
    .fil2 {fill:none}
    .fil1 {fill:#434242}
    .fil0 {fill:#F5B2B6}
   ]]>
  </style>
   <clipPath id="id0">
    <path d="M8 0c4.42,0 8,3.58 8,8 0,4.42 -3.58,8 -8,8 -4.42,0 -8,-3.58 -8,-8 0,-4.42 3.58,-8 8,-8z"/>
   </clipPath>
 </defs>
 <g id="Слой_x0020_1">
  <metadata id="CorelCorpID_0Corel-Layer"/>
  <path class="fil0" d="M8 0c4.42,0 8,3.58 8,8 0,4.42 -3.58,8 -8,8 -4.42,0 -8,-3.58 -8,-8 0,-4.42 3.58,-8 8,-8z"/>
  <g style="clip-path:url(#id0)">
   <g id="_2594931017488">
    <g>
     <path id="1" class="fil1" d="M4.36 9.67c-0.09,0.04 -0.23,0.13 -0.35,0.16 -0.1,0.07 -0.2,0.13 -0.31,0.22 -0.1,0.08 -0.15,0.18 -0.25,0.25 -0.07,0.12 -0.17,0.24 -0.26,0.39 -0.09,0.14 -0.16,0.29 -0.23,0.43 -0.04,0.12 -0.1,0.25 -0.14,0.38 -0.05,0.13 -0.1,0.28 -0.12,0.41 -0.02,0.09 -0.07,0.38 -0.12,0.45l-0.1 1.23c-0.02,0.39 -0.03,0.82 0.09,1.17 0.21,0.62 0.71,1.13 1.4,1.25 0.81,0.13 4.54,0.03 5.72,0.05 0.59,0.02 1.33,0.03 1.92,0 0.19,0 0.39,-0.04 0.55,-0.08 0.2,-0.06 0.3,-0.13 0.47,-0.19 0.05,-0.06 0.26,-0.21 0.33,-0.28 0.09,-0.08 0.19,-0.21 0.27,-0.31 0.13,-0.25 0.26,-0.51 0.28,-0.87 0.07,-0.69 -0.05,-1.8 -0.23,-2.49 -0.1,-0.37 -0.18,-0.49 -0.24,-0.7 -0.11,-0.29 -0.34,-0.65 -0.53,-0.87 -0.33,-0.38 -0.83,-0.67 -1.39,-0.72 -0.32,-0.03 -0.36,-0.03 -0.57,0.11 -0.15,0.1 -0.73,0.49 -0.85,0.53 -0.12,0.09 -0.54,0.24 -0.73,0.29 -0.12,0.04 -0.27,0.09 -0.4,0.07l-0.17 0.05c-0.05,0.01 -0.09,0.01 -0.14,0.02l-0.77 -0.03 -0.2 -0.06c-0.17,0.02 -0.69,-0.2 -0.85,-0.27 -0.18,-0.07 -0.71,-0.39 -0.8,-0.48 -0.23,-0.11 -0.27,-0.25 -0.6,-0.24 -0.29,0.01 -0.43,0.07 -0.68,0.13z"/>
     <path class="fil1" d="M7.55 4.01c-0.04,0.02 0.02,0 -0.06,0.03 -0.05,0.01 -0.01,0 -0.05,0.01 -0.04,0.01 -0.07,0.01 -0.12,0.02 -0.15,0.04 -0.31,0.08 -0.44,0.13 -0.08,0.04 -0.13,0.06 -0.21,0.1 -0.11,0.05 -0.11,0.08 -0.21,0.09l-0.13 0.12c-0.55,0.36 -0.73,0.73 -0.86,0.82 -0.02,0.05 0,0.01 -0.02,0.06 0,0 -0.03,0.05 -0.03,0.05 -0.22,0.38 -0.17,0.31 -0.33,0.72 -0.06,0.4 -0.12,0.62 -0.1,1.07 0.01,0.17 0.04,0.35 0.07,0.5 0.03,0.14 0.11,0.3 0.13,0.43 0.03,0.04 0.16,0.33 0.29,0.53 0.33,0.47 0.81,0.9 1.38,1.13 0.06,0.02 0.1,0.04 0.17,0.06 0.03,0.01 0.06,0.02 0.09,0.03l0.1 0.06c0.2,-0.03 1.07,0.26 2.01,-0.19 0.09,-0.04 0.18,-0.09 0.26,-0.13 0.12,-0.06 0.15,-0.12 0.26,-0.15 0.04,-0.06 0.05,-0.07 0.11,-0.11 0.51,-0.41 0.64,-0.73 0.74,-0.81 0,-0.02 0.21,-0.43 0.22,-0.44 0.02,-0.13 0.07,-0.24 0.11,-0.38l0.09 -0.37 -0.01 -0.29 -0.03 -0.55c-0.02,-0.15 -0.05,-0.29 -0.09,-0.43 -0.06,-0.16 -0.11,-0.26 -0.16,-0.4 -0.07,-0.13 -0.14,-0.26 -0.22,-0.38 -0.04,-0.06 -0.08,-0.11 -0.13,-0.17 -0.07,-0.09 -0.09,-0.07 -0.12,-0.16l-0.27 -0.28c-0.09,-0.03 -0.22,-0.16 -0.32,-0.23l-0.33 -0.22c-0.1,-0.01 -0.29,-0.1 -0.41,-0.14 -0.13,-0.04 -0.29,-0.09 -0.42,-0.1 -0.07,-0.01 -0.12,-0.01 -0.2,-0.02 -0.04,0 -0.06,0 -0.1,-0.01 -0.06,-0.02 -0.04,-0.01 -0.07,-0.03l-0.59 0.03z"/>
    </g>
   </g>
  </g>
  <path class="fil2" d="M8 0c4.42,0 8,3.58 8,8 0,4.42 -3.58,8 -8,8 -4.42,0 -8,-3.58 -8,-8 0,-4.42 3.58,-8 8,-8z"/>
 </g>
</svg>
