<svg width="24" height="24" viewBox="0 0 24 24" fill="none" xmlns="http://www.w3.org/2000/svg">
<path d="M23.592 12.2519C23.5796 5.90064 18.4208 0.761992 12.0696 0.774399C5.71831 0.786806 0.579658 5.94558 0.592065 12.2968C0.603278 18.0368 4.81795 22.7862 10.3174 23.6382L10.3017 15.6021L7.38175 15.6078L7.37525 12.2836L10.2952 12.2779L10.2902 9.7443C10.2846 6.86212 11.9983 5.26673 14.6252 5.2616C15.8834 5.25914 17.1999 5.48118 17.1999 5.48118L17.2054 8.31126L15.7553 8.31409C14.3267 8.31688 13.8829 9.20421 13.8847 10.1137L13.8889 12.2709L17.0784 12.2646L16.575 15.5898L13.8954 15.5951L13.9111 23.6311C19.4072 22.7577 23.6032 17.9919 23.592 12.2519Z" fill="white"/>
</svg>
