<svg width="24" height="24" viewBox="0 0 24 24" fill="none" xmlns="http://www.w3.org/2000/svg">
<path fill-rule="evenodd" clip-rule="evenodd" d="M23.2808 12.4246C23.2792 11.6092 23.2045 10.8252 23.0671 10.0728L12.2362 10.0939L12.2449 14.5423L18.434 14.5302C18.1702 15.9683 17.3623 17.1878 16.146 18.0056L16.1516 20.8911L19.8682 20.8838C22.0388 18.8775 23.2876 15.9269 23.2808 12.4246Z" fill="#4285F4"/>
<path fill-rule="evenodd" clip-rule="evenodd" d="M12.2628 23.6847C15.3678 23.6786 17.9689 22.6437 19.8682 20.8837L16.146 18.0055C15.1176 18.6975 13.8011 19.1078 12.2538 19.1108C9.25861 19.1166 6.71944 17.0987 5.80981 14.3822L1.96777 14.3897L1.97359 17.3693C3.87321 21.124 7.76732 23.6934 12.2628 23.6847Z" fill="#34A853"/>
<path fill-rule="evenodd" clip-rule="evenodd" d="M5.8098 14.3825C5.57845 13.6929 5.44633 12.9561 5.44485 12.1982C5.44337 11.4402 5.57261 10.7029 5.80126 10.0125L5.79544 7.03294L1.9534 7.04044C1.17757 8.59446 0.736689 10.3517 0.740314 12.2074C0.743939 14.063 1.19169 15.8185 1.97358 17.3695L5.8098 14.3825Z" fill="#FBBC05"/>
<path fill-rule="evenodd" clip-rule="evenodd" d="M12.2268 5.25872C13.9152 5.25542 15.4322 5.83269 16.6263 6.9699L19.9182 3.66505C17.923 1.81327 15.3176 0.678809 12.2178 0.684865C7.72239 0.693647 3.83834 3.27828 1.95342 7.04038L5.80128 10.0124C6.70028 7.29247 9.23155 5.26457 12.2268 5.25872Z" fill="#EA4335"/>
</svg>
