<?xml version="1.0" encoding="UTF-8"?>
<!DOCTYPE svg PUBLIC "-//W3C//DTD SVG 1.1//EN" "http://www.w3.org/Graphics/SVG/1.1/DTD/svg11.dtd">
<!-- Creator: CorelDRAW 2019 (64-Bit) -->
<svg xmlns="http://www.w3.org/2000/svg" xml:space="preserve" width="230px" height="85px" version="1.1" style="shape-rendering:geometricPrecision; text-rendering:geometricPrecision; image-rendering:optimizeQuality; fill-rule:evenodd; clip-rule:evenodd"
viewBox="0 0 230 85"
 xmlns:xlink="http://www.w3.org/1999/xlink">
 <defs>
  <style type="text/css">
   <![CDATA[
    .str0 {stroke:#3E4241;stroke-width:4;stroke-miterlimit:10}
    .fil2 {fill:none;fill-rule:nonzero}
    .fil0 {fill:#3E4241;fill-rule:nonzero}
    .fil1 {fill:white;fill-rule:nonzero}
   ]]>
  </style>
 </defs>
 <g id="Слой_x0020_1">
  <metadata id="CorelCorpID_0Corel-Layer"/>
  <g id="_2687730113072">
   <path class="fil0" d="M3.73 70.45l10.59 -0.69c0.24,1.73 0.68,3.02 1.4,3.95 1.13,1.44 2.78,2.21 4.91,2.21 1.57,0 2.82,-0.36 3.66,-1.13 0.81,-0.64 1.29,-1.57 1.29,-2.57 0,-0.97 -0.44,-1.89 -1.21,-2.5 -0.8,-0.72 -2.69,-1.45 -5.71,-2.09 -4.87,-1.09 -8.37,-2.54 -10.42,-4.39 -2.05,-1.73 -3.22,-4.26 -3.14,-6.96 0,-1.85 0.56,-3.7 1.61,-5.23 1.21,-1.73 2.86,-3.1 4.83,-3.86 2.13,-0.93 5.11,-1.41 8.85,-1.41 4.59,0 8.09,0.84 10.5,2.57 2.42,1.73 3.83,4.43 4.27,8.17l-10.46 0.61c-0.28,-1.61 -0.85,-2.78 -1.77,-3.55 -0.89,-0.76 -2.14,-1.12 -3.71,-1.08 -1.28,0 -2.25,0.28 -2.89,0.84 -0.65,0.49 -1.01,1.21 -0.97,2.02 0,0.6 0.32,1.16 0.81,1.52 0.52,0.49 1.77,0.93 3.74,1.33 4.87,1.05 8.33,2.1 10.46,3.18 2.13,1.09 3.66,2.41 4.59,3.98 0.96,1.61 1.45,3.47 1.45,5.32 0,2.25 -0.69,4.46 -1.93,6.36 -1.33,1.97 -3.18,3.5 -5.36,4.42 -2.29,1.01 -5.19,1.53 -8.65,1.53 -6.11,0 -10.34,-1.17 -12.71,-3.54 -2.38,-2.41 -3.71,-5.39 -4.03,-9.01zm13.68 -52.28l4.69 0c1,-0.08 1.96,-0.24 2.92,-0.48 0.72,-0.12 1.36,-0.52 1.8,-1.12 1.08,-1.44 0.92,-3.48 -0.4,-4.72 -0.72,-0.6 -2.12,-0.92 -4.12,-0.92l-4.89 0 0 7.24zm-11.26 21.37l0 -35.85 18.65 0c3.44,0 6.11,0.28 7.93,0.88 1.78,0.57 3.36,1.75 4.41,3.32 1.18,1.74 1.74,3.77 1.7,5.87 0.12,3.56 -1.7,6.96 -4.81,8.74 -1.22,0.69 -2.55,1.18 -3.93,1.42 1.01,0.28 2.03,0.77 2.92,1.33 0.68,0.57 1.25,1.22 1.78,1.91 0.6,0.68 1.13,1.45 1.57,2.26l5.43 10.48 -12.64 0 -6.04 -11.22c-0.78,-1.42 -1.43,-2.36 -2.04,-2.81 -0.82,-0.57 -1.79,-0.86 -2.77,-0.86l-0.9 0 0 14.49 -11.26 0 0 0.04zm112.43 -11.83l10.59 -0.69c0.24,1.74 0.68,3.02 1.4,3.95 1.17,1.45 2.78,2.17 4.91,2.17 1.57,0 2.82,-0.36 3.67,-1.12 0.8,-0.61 1.28,-1.57 1.28,-2.58 0,-0.97 -0.44,-1.89 -1.2,-2.5 -0.81,-0.72 -2.7,-1.44 -5.68,-2.09 -4.87,-1.08 -8.37,-2.53 -10.42,-4.38 -2.05,-1.74 -3.22,-4.27 -3.14,-6.97 0,-1.85 0.56,-3.7 1.61,-5.23 1.21,-1.73 2.86,-3.1 4.83,-3.86 2.13,-0.93 5.11,-1.41 8.85,-1.41 4.59,0 8.09,0.85 10.51,2.58 2.41,1.69 3.86,4.42 4.3,8.16l-10.46 0.61c-0.28,-1.61 -0.85,-2.78 -1.77,-3.54 -0.93,-0.77 -2.14,-1.13 -3.7,-1.13 -1.29,0 -2.26,0.28 -2.9,0.8 -0.61,0.49 -1.01,1.21 -0.97,2.02 0,0.6 0.32,1.16 0.81,1.53 0.52,0.48 1.77,0.92 3.74,1.33 4.87,1.04 8.33,2.09 10.46,3.18 2.14,1.08 3.67,2.41 4.59,3.98 0.97,1.61 1.45,3.46 1.41,5.35 0,2.25 -0.65,4.51 -1.93,6.4 -1.33,1.97 -3.18,3.5 -5.36,4.43 -2.29,1 -5.19,1.53 -8.65,1.53 -6.11,0 -10.34,-1.17 -12.71,-3.55 -2.38,-2.37 -3.79,-5.35 -4.07,-8.97z"/>
   <path class="fil0" d="M79.79 46.34l11.27 0 0 12.48 12.07 0 0 -12.48 11.27 0 0 35.82 -11.27 0 0 -14.49 -12.07 0 0 14.49 -11.27 0 0 -35.82zm-22.54 21.29l9.74 2.94c-0.52,2.45 -1.61,4.79 -3.1,6.84 -1.37,1.81 -3.18,3.22 -5.23,4.14 -2.09,0.93 -4.75,1.41 -7.97,1.41 -3.9,0 -7.12,-0.56 -9.57,-1.69 -2.5,-1.13 -4.63,-3.14 -6.44,-6 -1.81,-2.85 -2.7,-6.51 -2.7,-10.98 0,-5.96 1.57,-10.54 4.75,-13.72 3.18,-3.18 7.65,-4.79 13.44,-4.79 4.55,0 8.09,0.92 10.7,2.73 2.58,1.86 4.51,4.67 5.8,8.46l-9.82 2.17c-0.24,-0.85 -0.6,-1.69 -1.09,-2.42 -0.6,-0.84 -1.36,-1.49 -2.29,-1.97 -0.92,-0.48 -1.97,-0.68 -3.02,-0.68 -2.53,0 -4.46,1 -5.79,3.06 -1.01,1.48 -1.53,3.86 -1.53,7.08 0,3.98 0.6,6.72 1.81,8.21 1.21,1.49 2.9,2.21 5.11,2.21 2.13,0 3.74,-0.6 4.83,-1.77 1.09,-1.25 1.89,-2.98 2.37,-5.23z"/>
   <path class="fil0" d="M172.71 64.41c0,3.62 0.68,6.24 2.01,7.85 1.33,1.57 3.18,2.37 5.51,2.37 2.38,0 4.23,-0.76 5.56,-2.33 1.32,-1.57 1.97,-4.35 1.97,-8.37 0,-3.38 -0.69,-5.88 -2.05,-7.41 -1.37,-1.57 -3.22,-2.33 -5.56,-2.33 -2.05,-0.08 -4.06,0.8 -5.39,2.37 -1.37,1.57 -2.05,4.19 -2.05,7.85zm-11.11 -0.04c0,-5.88 1.65,-10.46 4.91,-13.72 3.26,-3.26 7.85,-4.91 13.68,-4.91 6,0 10.63,1.61 13.85,4.83 3.21,3.22 4.86,7.72 4.86,13.52 0,4.22 -0.72,7.64 -2.13,10.34 -1.37,2.66 -3.5,4.83 -6.12,6.28 -2.69,1.49 -6.03,2.25 -10.01,2.25 -4.07,0 -7.41,-0.64 -10.07,-1.93 -2.73,-1.37 -4.99,-3.5 -6.47,-6.12 -1.65,-2.81 -2.5,-6.31 -2.5,-10.54zm-37.59 0.04c0,3.62 0.69,6.24 2.02,7.85 1.32,1.57 3.18,2.37 5.51,2.37 2.37,0 4.23,-0.76 5.55,-2.33 1.33,-1.57 1.98,-4.35 1.98,-8.37 0,-3.38 -0.69,-5.88 -2.06,-7.41 -1.37,-1.57 -3.22,-2.33 -5.55,-2.33 -2.05,-0.08 -4.03,0.8 -5.39,2.37 -1.37,1.57 -2.06,4.19 -2.06,7.85zm-11.1 -0.04c0,-5.88 1.65,-10.46 4.91,-13.72 3.26,-3.26 7.85,-4.91 13.68,-4.91 6,0 10.58,1.61 13.84,4.83 3.26,3.22 4.87,7.72 4.87,13.52 0,4.22 -0.72,7.64 -2.13,10.34 -1.37,2.66 -3.5,4.83 -6.12,6.28 -2.69,1.49 -6.03,2.25 -10.02,2.25 -4.06,0 -7.4,-0.64 -10.06,-1.93 -2.73,-1.37 -4.99,-3.5 -6.48,-6.12 -1.65,-2.81 -2.49,-6.31 -2.49,-10.54z"/>
   <polygon class="fil0" points="197.74,46.34 208.96,46.34 208.96,73.3 226.27,73.3 226.27,82.16 197.7,82.16 197.7,46.34 "/>
   <path class="fil1" d="M160.4 11.01c11.19,-8.43 25.87,-7.8 32.8,1.39 6.92,9.19 3.48,23.48 -7.7,31.91 -11.19,8.42 -25.87,7.8 -32.8,-1.39 -6.93,-9.2 -3.48,-23.48 7.7,-31.91z"/>
   <path class="fil1" d="M160.41 11.01c-11.19,8.43 -14.63,22.71 -7.71,31.91l0 0c6.93,9.19 21.61,9.81 32.8,1.38l0 0c11.18,-8.42 14.62,-22.71 7.7,-31.9l0 0c-3.66,-4.86 -9.49,-7.32 -15.82,-7.32l0 0c-5.65,0 -11.7,1.96 -16.97,5.93l0 0z"/>
   <path class="fil1" d="M160.4 11.01l0.01 0 0.04 -0.03c0.15,-0.11 0.3,-0.22 0.45,-0.33l0.09 -0.07c0.14,-0.1 0.29,-0.21 0.43,-0.31l0.1 -0.06c0.16,-0.11 0.31,-0.21 0.46,-0.31l0.04 -0.03c0.16,-0.1 0.31,-0.2 0.46,-0.3l0.14 -0.08 0.37 -0.23 0.16 -0.1c0.14,-0.08 0.28,-0.16 0.42,-0.24l0.1 -0.06c0.14,-0.08 0.29,-0.16 0.43,-0.24l0.15 -0.09 0.42 -0.22 0.15 -0.08 0.37 -0.18 0.22 -0.12 0.41 -0.19 0.12 -0.05c0.14,-0.07 0.28,-0.13 0.42,-0.2l0.14 -0.06 0.4 -0.17 0.18 -0.08 0.4 -0.16 0.15 -0.06c0.14,-0.05 0.28,-0.1 0.41,-0.15l0.15 -0.06 0.43 -0.15 0.11 -0.04c0.16,-0.06 0.32,-0.11 0.48,-0.16l0.06 -0.02 0.02 -0.01 0.01 0c0.16,-0.05 0.32,-0.1 0.47,-0.15l0.15 -0.04 0.44 -0.13 0.14 -0.03 0.47 -0.13 0.08 -0.02 0.45 -0.11 0.15 -0.03c0.15,-0.03 0.3,-0.07 0.44,-0.1l0.1 -0.02 0.45 -0.09 0.14 -0.02c0.16,-0.03 0.31,-0.06 0.47,-0.08l0.07 -0.01c0.17,-0.03 0.34,-0.06 0.51,-0.08l0.04 -0.01 0.02 0c0.18,-0.03 0.35,-0.05 0.53,-0.07l0.01 0 0.01 0 0.03 0c0.17,-0.02 0.33,-0.04 0.5,-0.06l0.04 0 0.02 0c0.18,-0.02 0.36,-0.04 0.55,-0.05l0.01 0c0.18,-0.01 0.37,-0.02 0.55,-0.03l0.02 0c0.17,-0.01 0.35,-0.02 0.52,-0.02l0.07 -0.01c0.17,0 0.35,0 0.52,0l0.01 0c0.18,0 0.36,0 0.54,0l0.04 0c0.17,0 0.35,0.01 0.53,0.02l0.02 0c5,0.21 9.62,1.99 13.02,5.29l0.02 0.02c0.12,0.12 0.24,0.24 0.35,0.36l0.02 0.01c0.12,0.13 0.23,0.25 0.35,0.38l0.01 0.01c0.12,0.13 0.23,0.26 0.34,0.39l0.01 0.01c0.12,0.14 0.23,0.27 0.34,0.41l0 0c0.11,0.14 0.22,0.28 0.33,0.42l0 0c0.11,0.14 0.21,0.29 0.31,0.44l0 0c0.11,0.14 0.21,0.29 0.31,0.44l0 0c0.09,0.15 0.19,0.29 0.28,0.45l0 0c0.1,0.15 0.19,0.3 0.28,0.45 0.08,0.15 0.17,0.31 0.25,0.46l0 0c0.09,0.16 0.17,0.31 0.24,0.47l0 0c0.08,0.16 0.16,0.32 0.23,0.48l0 0c0.07,0.16 0.15,0.31 0.21,0.48l0 0c0.07,0.16 0.14,0.32 0.2,0.48l0 0c0.07,0.16 0.13,0.33 0.18,0.49l0 0c0.06,0.17 0.12,0.33 0.17,0.5 0.06,0.16 0.11,0.33 0.16,0.5l0 0c0.05,0.16 0.09,0.33 0.14,0.5l0 0c0.04,0.17 0.08,0.34 0.12,0.51l0 0c0.04,0.17 0.08,0.34 0.11,0.51 0.04,0.18 0.07,0.35 0.1,0.52l0 0c0.03,0.17 0.06,0.34 0.08,0.52l0 0c0.03,0.17 0.05,0.35 0.07,0.52 0.02,0.18 0.04,0.35 0.05,0.53l0 0c0.02,0.17 0.03,0.35 0.04,0.53l0 0c0.01,0.17 0.02,0.35 0.03,0.53l0 0c0.01,0.18 0.01,0.35 0.01,0.53l0 0c0,0.18 0,0.36 0,0.54l0 0c0,0.18 -0.01,0.35 -0.02,0.53l0 0c0,0.18 -0.01,0.36 -0.03,0.54l0 0c-0.01,0.18 -0.02,0.36 -0.04,0.54l0 0c-0.02,0.18 -0.03,0.36 -0.06,0.54l0 0c-0.04,0.36 -0.09,0.72 -0.15,1.08l0 0.01c-0.12,0.72 -0.28,1.44 -0.47,2.16l0 0c-0.14,0.54 -0.31,1.08 -0.49,1.62l0 0c-0.25,0.71 -0.52,1.43 -0.84,2.13l0 0c-0.07,0.18 -0.16,0.35 -0.24,0.53l0 0c-0.25,0.52 -0.51,1.05 -0.8,1.56l0 0c-0.28,0.52 -0.59,1.03 -0.91,1.54l0 0c-1.18,1.85 -2.62,3.61 -4.28,5.23l-0.01 0c-0.3,0.29 -0.61,0.58 -0.93,0.87l0 0c-0.32,0.28 -0.64,0.56 -0.98,0.84l0 0c-0.17,0.13 -0.33,0.27 -0.5,0.41l-0.01 0c-0.17,0.13 -0.34,0.26 -0.51,0.39l0 0c-0.18,0.14 -0.35,0.27 -0.53,0.39l0 0c-0.18,0.13 -0.35,0.26 -0.53,0.38 -0.18,0.12 -0.36,0.24 -0.54,0.36l0 0c-0.18,0.12 -0.36,0.23 -0.54,0.35 -0.18,0.11 -0.36,0.22 -0.54,0.33 -0.19,0.11 -0.37,0.22 -0.55,0.33 -0.19,0.1 -0.37,0.2 -0.55,0.31 -0.19,0.1 -0.37,0.2 -0.56,0.29 -0.18,0.1 -0.37,0.19 -0.56,0.28l0 0c-0.18,0.1 -0.37,0.19 -0.56,0.27 -0.19,0.09 -0.37,0.18 -0.56,0.26 -0.19,0.08 -0.38,0.16 -0.57,0.24l0 0c-0.19,0.08 -0.38,0.16 -0.57,0.23 -0.19,0.08 -0.38,0.15 -0.57,0.22l0 0c-0.19,0.07 -0.38,0.14 -0.57,0.2l0 0c-0.19,0.07 -0.38,0.13 -0.57,0.2l0 0c-0.19,0.06 -0.38,0.12 -0.57,0.17l0 0c-0.2,0.06 -0.39,0.12 -0.58,0.17l0 0c-0.19,0.05 -0.38,0.1 -0.57,0.15l0 0c-0.2,0.05 -0.39,0.09 -0.58,0.14l0 0c-0.19,0.04 -0.38,0.09 -0.57,0.12l0 0c-0.2,0.04 -0.39,0.08 -0.58,0.12l0 0c-0.19,0.03 -0.38,0.06 -0.57,0.1l0 0c-0.2,0.03 -0.39,0.06 -0.58,0.08l0 0c-0.19,0.03 -0.38,0.05 -0.57,0.08l0 0c-0.19,0.02 -0.38,0.04 -0.57,0.06l0 0c-0.19,0.02 -0.38,0.03 -0.57,0.04l0 0c-0.19,0.02 -0.38,0.03 -0.57,0.04l0 0c-0.19,0.01 -0.38,0.02 -0.56,0.02l0 0c-0.19,0.01 -0.38,0.01 -0.57,0.01l0 0c-0.18,0 -0.37,0 -0.56,-0.01l0 0c-0.18,0 -0.37,0 -0.56,-0.01l0 0c-0.18,-0.01 -0.37,-0.02 -0.55,-0.03l0 0c-0.19,-0.01 -0.37,-0.03 -0.55,-0.04l0 0c-0.18,-0.02 -0.37,-0.04 -0.55,-0.06l0 0c-0.18,-0.02 -0.36,-0.04 -0.54,-0.07l0 0c-0.18,-0.02 -0.36,-0.05 -0.54,-0.08l0 0c-0.18,-0.03 -0.36,-0.06 -0.54,-0.09l0 0c-0.18,-0.04 -0.35,-0.07 -0.53,-0.11l0 0c-0.18,-0.04 -0.35,-0.08 -0.52,-0.12l-0.01 0c-0.17,-0.05 -0.34,-0.09 -0.51,-0.14l-0.01 0c-0.17,-0.04 -0.34,-0.09 -0.51,-0.14l0 0c-0.17,-0.05 -0.34,-0.11 -0.51,-0.16l0 0c-0.17,-0.05 -0.34,-0.11 -0.5,-0.17l0 0c-0.5,-0.18 -1,-0.38 -1.47,-0.59l-0.01 0c-0.16,-0.07 -0.31,-0.15 -0.47,-0.22l0 0c-2.53,-1.22 -4.74,-2.99 -6.48,-5.28 -0.97,-1.3 -1.74,-2.69 -2.31,-4.15l0 0c-0.13,-0.33 -0.25,-0.66 -0.35,-0.99l0 0c-0.06,-0.17 -0.11,-0.33 -0.16,-0.5l0 0c-0.05,-0.17 -0.09,-0.34 -0.14,-0.51l0 0c-0.04,-0.16 -0.08,-0.33 -0.12,-0.5l0 0c-0.04,-0.18 -0.08,-0.35 -0.11,-0.52l0 0c-0.04,-0.17 -0.07,-0.34 -0.1,-0.51l0 0c-0.03,-0.18 -0.06,-0.35 -0.08,-0.52l0 0c-0.03,-0.18 -0.05,-0.35 -0.07,-0.53l0 0c-0.02,-0.17 -0.04,-0.35 -0.05,-0.52l0 0c-0.02,-0.18 -0.03,-0.35 -0.04,-0.53l0 0c-0.01,-0.18 -0.02,-0.35 -0.03,-0.53l0 0c0,-0.18 -0.01,-0.36 -0.01,-0.54 0,-0.17 0,-0.35 0,-0.53 0,-0.18 0.01,-0.36 0.02,-0.54 0,-0.18 0.01,-0.36 0.03,-0.54 0.01,-0.18 0.02,-0.36 0.04,-0.54 0.02,-0.18 0.03,-0.36 0.06,-0.54l0 0c0.02,-0.18 0.04,-0.36 0.07,-0.54l0 0c0.02,-0.18 0.05,-0.36 0.08,-0.54l0 0c0.03,-0.18 0.06,-0.36 0.1,-0.54 0.03,-0.18 0.07,-0.36 0.11,-0.54 0.04,-0.18 0.08,-0.37 0.12,-0.54l0 0c0.05,-0.19 0.09,-0.37 0.14,-0.55 0.05,-0.18 0.1,-0.36 0.15,-0.54 0.05,-0.18 0.11,-0.36 0.16,-0.54l0 0c0.06,-0.17 0.12,-0.35 0.18,-0.53l0 0c0.06,-0.18 0.12,-0.36 0.19,-0.54l0 0c0.07,-0.18 0.13,-0.36 0.2,-0.53l0 0c0.07,-0.18 0.14,-0.36 0.22,-0.54 0.07,-0.17 0.15,-0.35 0.23,-0.53l0 0c0.07,-0.17 0.16,-0.35 0.24,-0.52l0 0c0.08,-0.18 0.17,-0.35 0.25,-0.53l0 0c0.09,-0.17 0.18,-0.35 0.27,-0.52l0 0c0.09,-0.17 0.18,-0.35 0.28,-0.52 0.09,-0.17 0.19,-0.34 0.29,-0.51l0 0c0.1,-0.17 0.2,-0.34 0.3,-0.51 0.11,-0.17 0.21,-0.34 0.32,-0.51l0 0c0.11,-0.17 0.22,-0.34 0.33,-0.5l0 0c0.11,-0.17 0.23,-0.34 0.34,-0.5l0 0c0.12,-0.16 0.23,-0.33 0.35,-0.49l0 0c0.12,-0.17 0.25,-0.33 0.37,-0.49l0 0c0.12,-0.16 0.25,-0.32 0.38,-0.48l0 0c0.13,-0.16 0.25,-0.32 0.39,-0.48l0 0c0.13,-0.16 0.26,-0.32 0.4,-0.47l0 0c0.14,-0.16 0.27,-0.31 0.41,-0.47l0 0c0.14,-0.15 0.29,-0.31 0.43,-0.46l0 0c0.14,-0.15 0.29,-0.3 0.44,-0.45l0 0c0.14,-0.15 0.29,-0.3 0.45,-0.45l0 0c0.15,-0.14 0.3,-0.29 0.46,-0.43l0 0c0.15,-0.15 0.31,-0.29 0.47,-0.43l0 0c0.16,-0.15 0.32,-0.29 0.48,-0.43l0 0c0.17,-0.14 0.33,-0.28 0.5,-0.41l0 0c0.17,-0.14 0.34,-0.28 0.51,-0.41l0 0c0.17,-0.14 0.34,-0.27 0.51,-0.4z"/>
   <path class="fil1" d="M156.81 14.18l7.63 -5.75c4.21,-2.24 8.68,-3.35 12.94,-3.35l0 0c0,0 0,0 0,0l0 0c0.79,0 1.58,0.03 2.35,0.11l0 0c4.57,0.46 8.75,2.26 11.87,5.38l2.92 3.87c1.51,2.72 2.24,5.78 2.25,8.94l0 0c0.02,7.44 -3.98,15.43 -11.27,20.92l0 0c-0.06,0.04 -0.11,0.08 -0.16,0.13l0 0c-5.22,3.88 -11.19,5.8 -16.77,5.81l0 0c-0.02,0 -0.03,0 -0.05,0l0 0c-0.01,0 -0.02,0 -0.03,0l0 0c-6.23,-0.01 -11.98,-2.41 -15.64,-7.13l0 0c-0.05,-0.06 -0.1,-0.13 -0.15,-0.19l0 0c-2.4,-3.2 -3.56,-7.01 -3.57,-10.98l0 0c-0.02,-6.11 2.68,-12.59 7.68,-17.76z"/>
   <path class="fil1" d="M164.44 8.43l0 0 0.2 -0.1 0.2 -0.1 0.19 -0.11 0.01 0 0.39 -0.19 0.2 -0.1 0.02 -0.01 0.36 -0.17 0.02 -0.01 0.2 -0.09 0.05 -0.02 0.3 -0.13 0.05 -0.03 0.2 -0.08 0.01 0 0.33 -0.14 0.06 -0.03 0.21 -0.08 0 0 0.3 -0.12 0.2 -0.07 0.3 -0.12 0.34 -0.12 0.26 -0.09 0.01 0 0.21 -0.07 0.08 -0.03 0.26 -0.08 0.06 -0.02 0.21 -0.06 0.05 -0.02 0.22 -0.07 0.39 -0.11 0.2 -0.05 0.38 -0.1 0.16 -0.04 0.39 -0.1 0.21 -0.05 0.38 -0.08 0.18 -0.04 0.41 -0.08 0.15 -0.02c0.14,-0.03 0.29,-0.05 0.43,-0.08l0.12 -0.02c0.15,-0.02 0.31,-0.05 0.47,-0.07l0.11 -0.02c0.14,-0.02 0.29,-0.03 0.44,-0.05l0.08 -0.01 0.03 0c0.17,-0.02 0.33,-0.04 0.49,-0.06l0.05 0 0.03 0c0.17,-0.02 0.35,-0.03 0.53,-0.05l0 0 0.01 0 0.02 0c0.18,-0.01 0.37,-0.02 0.55,-0.03l0 0 0.02 -0.01c0.18,0 0.36,-0.01 0.54,-0.02l0.01 0c0.37,0 0.74,-0.01 1.1,0l0.02 0 0.02 0c0.17,0 0.35,0.01 0.52,0.02l0.02 0 0.01 0c0.16,0 0.32,0.01 0.48,0.02l0.04 0.01 0.02 0 0.01 0 0.04 0c3.3,0.23 6.41,1.14 9.1,2.73l0.02 0.01c0.14,0.08 0.29,0.17 0.43,0.26l0.01 0.01c0.44,0.27 0.87,0.57 1.28,0.89l0.01 0c0.14,0.11 0.27,0.21 0.41,0.32l0 0.01c0.27,0.22 0.53,0.44 0.79,0.68l0.01 0.01c0.18,0.17 0.37,0.34 0.55,0.52l2.9 3.86c0.55,0.99 1,2.01 1.34,3.07l0.01 0.04 0.01 0.02c0.05,0.16 0.1,0.32 0.15,0.48l0 0.01c0.05,0.16 0.09,0.31 0.13,0.47l0.01 0.05c0.04,0.15 0.08,0.3 0.11,0.45l0.02 0.07c0.03,0.14 0.06,0.29 0.09,0.43l0.01 0.04 0.01 0.04c0.03,0.14 0.06,0.29 0.08,0.43l0.01 0.05 0 0.03c0.03,0.15 0.05,0.29 0.07,0.44l0.02 0.09c0.02,0.15 0.04,0.3 0.06,0.45l0 0.03 0.01 0.06c0.03,0.33 0.06,0.66 0.08,0.99l0 0.01 0 0.02c0.03,0.34 0.04,0.69 0.04,1.03l0 0.01c0,0.17 0,0.35 0,0.52l0 0.06 -0.01 0.43 -0.01 0.1c-0.01,0.16 -0.01,0.32 -0.03,0.48l0 0.07 -0.03 0.42 -0.01 0.11c-0.02,0.15 -0.03,0.31 -0.05,0.47l-0.02 0.1c-0.04,0.33 -0.08,0.65 -0.13,0.98l-0.02 0.09c-0.03,0.16 -0.06,0.32 -0.09,0.48l0 0.01c-0.03,0.16 -0.06,0.32 -0.1,0.48l-0.02 0.13c-0.07,0.32 -0.15,0.64 -0.24,0.96l-0.03 0.11c-0.04,0.16 -0.08,0.32 -0.13,0.48l0 0 0 0.01c-0.05,0.16 -0.1,0.31 -0.14,0.47l-0.04 0.11c-0.05,0.16 -0.1,0.31 -0.15,0.46l-0.01 0.03 -0.02 0.05c-0.05,0.14 -0.1,0.28 -0.15,0.42l-0.04 0.1c-0.05,0.17 -0.12,0.33 -0.18,0.49l-0.01 0.04c-0.06,0.14 -0.12,0.29 -0.18,0.43l-0.05 0.11c-0.06,0.15 -0.12,0.3 -0.19,0.44l-0.07 0.16 -0.14 0.31 -0.07 0.16c-0.07,0.14 -0.14,0.29 -0.21,0.43l-0.06 0.12 -0.19 0.36 -0.06 0.12c-0.07,0.14 -0.15,0.28 -0.22,0.41l-0.09 0.16 -0.21 0.38 -0.04 0.06c-0.08,0.15 -0.17,0.29 -0.26,0.43l-0.09 0.16 -0.19 0.3 -0.13 0.2 -0.23 0.36 -0.08 0.12 -0.26 0.38 -0.04 0.05 0 0 -0.04 0.07 -0.27 0.37 -0.08 0.11c-0.11,0.14 -0.21,0.28 -0.31,0.41l-0.02 0.03 -0.04 0.05c-0.09,0.12 -0.18,0.23 -0.27,0.35l-0.11 0.13c-0.11,0.14 -0.22,0.27 -0.33,0.4l-0.08 0.1 -0.26 0.3 -0.12 0.15c-0.12,0.13 -0.24,0.27 -0.36,0.4l-0.04 0.04c-0.11,0.12 -0.23,0.25 -0.34,0.37l-0.09 0.1c-0.13,0.13 -0.26,0.26 -0.39,0.4l-0.05 0.04c-0.12,0.13 -0.24,0.25 -0.36,0.37l-0.08 0.07c-0.13,0.13 -0.27,0.26 -0.41,0.39l-0.07 0.07c-0.12,0.11 -0.25,0.23 -0.38,0.34l-0.05 0.05 -0.04 0.03c-0.13,0.13 -0.27,0.24 -0.41,0.36l-0.08 0.07c-0.15,0.13 -0.29,0.25 -0.44,0.37l-0.01 0.01 -0.02 0.02c-0.15,0.12 -0.29,0.23 -0.44,0.35l-0.09 0.07c-0.16,0.12 -0.31,0.25 -0.47,0.36l0 0 -0.01 0.01c-0.34,0.26 -0.69,0.51 -1.03,0.75l-0.04 0.02c-0.17,0.12 -0.34,0.23 -0.51,0.34l-0.01 0.01c-0.18,0.12 -0.36,0.24 -0.54,0.35l-0.01 0.01c-0.35,0.22 -0.7,0.43 -1.05,0.63l-0.09 0.05c-0.16,0.09 -0.32,0.18 -0.47,0.26l-0.05 0.03c-0.16,0.09 -0.31,0.17 -0.47,0.25l-0.11 0.06c-0.15,0.07 -0.29,0.15 -0.44,0.22l-0.1 0.05c-0.17,0.08 -0.33,0.16 -0.49,0.24l-0.04 0.01 -0.04 0.02c-0.15,0.07 -0.31,0.14 -0.46,0.21l-0.14 0.06c-0.15,0.07 -0.3,0.14 -0.46,0.2l-0.03 0.01 -0.05 0.02c-0.15,0.07 -0.31,0.13 -0.47,0.2l-0.13 0.04c-0.14,0.06 -0.29,0.12 -0.44,0.17l-0.1 0.04c-0.15,0.06 -0.31,0.11 -0.46,0.16l-0.11 0.04 -0.45 0.15 -0.13 0.04c-0.14,0.05 -0.29,0.1 -0.44,0.14l-0.07 0.02 -0.04 0.01c-0.16,0.05 -0.31,0.09 -0.47,0.14l-0.07 0.02 0 0 -0.06 0.01c-0.16,0.05 -0.32,0.09 -0.47,0.13l-0.12 0.03 -0.45 0.11 -0.13 0.03 -0.41 0.09 -0.17 0.03 -0.4 0.08 -0.17 0.03c-0.15,0.03 -0.3,0.05 -0.44,0.08l-0.08 0.01 -0.48 0.07 -0.13 0.02c-0.16,0.02 -0.32,0.04 -0.47,0.06l-0.03 0 -0.01 0.01 -0.05 0c-0.16,0.02 -0.32,0.04 -0.48,0.05l-0.14 0.01c-0.13,0.02 -0.27,0.03 -0.41,0.04l-0.15 0.01 -0.41 0.02 -0.13 0.01 -0.4 0.02 -0.17 0 -0.4 0.01 -0.15 0 -0.01 0 -0.01 0 -0.01 0 -0.02 0 -0.01 0 0 0 -0.35 0 -0.19 -0.01 -0.41 -0.01 -0.13 -0.01 -0.42 -0.02 -0.14 -0.01c-0.15,-0.01 -0.3,-0.02 -0.45,-0.03l-0.06 -0.01c-0.16,-0.01 -0.31,-0.03 -0.47,-0.05l-0.04 0 -0.03 -0.01c-0.17,-0.01 -0.33,-0.03 -0.49,-0.06l-0.01 0 -0.01 0 -0.04 -0.01c-0.17,-0.02 -0.34,-0.04 -0.5,-0.07l-0.01 0c-0.17,-0.03 -0.33,-0.06 -0.5,-0.09l-0.03 0 -0.02 -0.01c-0.15,-0.03 -0.3,-0.06 -0.45,-0.09l-0.09 -0.02c-0.16,-0.03 -0.32,-0.07 -0.48,-0.11l-0.02 -0.01c-0.16,-0.03 -0.32,-0.07 -0.48,-0.12l-0.06 -0.01c-0.15,-0.04 -0.29,-0.08 -0.44,-0.13l-0.1 -0.02c-0.14,-0.05 -0.29,-0.1 -0.44,-0.14l-0.04 -0.02c-0.15,-0.05 -0.3,-0.1 -0.45,-0.15l-0.07 -0.02c-0.15,-0.06 -0.29,-0.11 -0.44,-0.17l-0.05 -0.02c-0.15,-0.05 -0.29,-0.11 -0.44,-0.17l-0.06 -0.03c-0.14,-0.06 -0.29,-0.12 -0.43,-0.18l-0.05 -0.03c-0.14,-0.06 -0.28,-0.13 -0.42,-0.19l-0.07 -0.04c-0.14,-0.06 -0.27,-0.13 -0.41,-0.2l0 0 -0.01 -0.01 -0.03 -0.02c-0.14,-0.06 -0.27,-0.14 -0.4,-0.21l-0.03 -0.02 -0.01 0 -0.01 -0.01c-0.14,-0.07 -0.27,-0.15 -0.4,-0.23l-0.04 -0.02 -0.03 -0.01c-0.12,-0.08 -0.24,-0.15 -0.36,-0.23l-0.09 -0.05c-0.12,-0.08 -0.24,-0.16 -0.36,-0.23l-0.07 -0.05c-0.12,-0.09 -0.25,-0.17 -0.37,-0.26l-0.06 -0.04c-0.12,-0.09 -0.24,-0.18 -0.37,-0.27l-0.05 -0.05c-0.12,-0.09 -0.24,-0.18 -0.35,-0.27l-0.07 -0.06c-0.11,-0.09 -0.22,-0.18 -0.33,-0.27l-0.08 -0.07c-0.11,-0.1 -0.22,-0.19 -0.32,-0.29l-0.07 -0.06c-0.11,-0.1 -0.22,-0.2 -0.33,-0.31l-0.05 -0.05c-0.11,-0.11 -0.22,-0.22 -0.33,-0.34l-0.02 -0.01c-0.11,-0.12 -0.22,-0.24 -0.33,-0.36l-0.06 -0.06c-0.11,-0.12 -0.21,-0.23 -0.31,-0.35l0 -0.01c-0.12,-0.13 -0.23,-0.26 -0.34,-0.4l-0.01 -0.01 -0.01 -0.01c-0.1,-0.14 -0.21,-0.27 -0.32,-0.41 -2.38,-3.16 -3.53,-6.92 -3.57,-10.84l0 -0.01c0,-0.16 0,-0.32 0,-0.48l0 -0.11c0.01,-0.15 0.01,-0.3 0.02,-0.46l0 -0.06c0.01,-0.16 0.01,-0.33 0.03,-0.49l0 -0.02c0.01,-0.17 0.02,-0.34 0.04,-0.51l0 -0.02 0 0 0 -0.02c0.01,-0.14 0.03,-0.28 0.05,-0.43l0.01 -0.13c0.02,-0.15 0.04,-0.29 0.06,-0.43l0.01 -0.11c0.02,-0.14 0.05,-0.29 0.07,-0.43l0.02 -0.12c0.02,-0.15 0.05,-0.29 0.08,-0.44l0.02 -0.11c0.03,-0.14 0.06,-0.29 0.09,-0.43l0.02 -0.13c0.04,-0.14 0.07,-0.28 0.1,-0.43l0.03 -0.11c0.03,-0.13 0.07,-0.26 0.1,-0.39l0.04 -0.16c0.04,-0.13 0.08,-0.27 0.12,-0.4l0.01 -0.06 0.01 -0.02c0.04,-0.14 0.08,-0.28 0.13,-0.43l0.04 -0.14 0.13 -0.4 0.05 -0.14c0.05,-0.14 0.09,-0.27 0.14,-0.4l0.06 -0.15 0.14 -0.39 0.07 -0.17 0.16 -0.39 0.05 -0.12c0.06,-0.14 0.12,-0.28 0.18,-0.42l0.06 -0.13 0.16 -0.35 0.04 -0.08 0 0 0.03 -0.08 0.18 -0.36 0.06 -0.13 0.21 -0.4 0.06 -0.13c0.08,-0.14 0.15,-0.28 0.23,-0.42l0.06 -0.1c0.07,-0.13 0.15,-0.27 0.23,-0.4l0.07 -0.13c0.08,-0.14 0.16,-0.27 0.24,-0.4l0.06 -0.1c0.09,-0.14 0.17,-0.28 0.26,-0.42l0.06 -0.09c0.09,-0.14 0.18,-0.29 0.28,-0.43l0.01 -0.01 0.03 -0.04 0.27 -0.4 0.04 -0.06 0.01 -0.02 0.02 -0.01c0.09,-0.13 0.18,-0.26 0.27,-0.39l0.08 -0.11 0.28 -0.37 0.1 -0.14 0.29 -0.36 0.11 -0.14 0.29 -0.35 0.09 -0.11c0.1,-0.12 0.2,-0.25 0.31,-0.37l0.11 -0.12 0.32 -0.36 0.02 -0.03 0.05 -0.05 0.32 -0.35 0.06 -0.06 0 0 0.06 -0.06 0.18 -0.19 7.62 -5.74z"/>
   <path class="fil1" d="M156.81 14.18l7.63 -5.75c4.21,-2.24 8.68,-3.35 12.94,-3.35l0 0c0,0 0,0 0,0l0 0c0.79,0 1.58,0.03 2.35,0.11l0 0c4.57,0.46 8.75,2.26 11.87,5.38l2.92 3.87c1.51,2.72 2.24,5.78 2.25,8.94l0 0c0.02,7.44 -3.98,15.43 -11.27,20.92l0 0c-0.06,0.04 -0.11,0.08 -0.16,0.13l0 0c-5.22,3.88 -11.19,5.8 -16.77,5.81l0 0c-0.02,0 -0.03,0 -0.05,0l0 0c-0.01,0 -0.02,0 -0.03,0l0 0c-6.23,-0.01 -11.98,-2.41 -15.64,-7.13l0 0c-0.05,-0.06 -0.1,-0.13 -0.15,-0.19l0 0c-2.4,-3.2 -3.56,-7.01 -3.57,-10.98l0 0c-0.02,-6.11 2.68,-12.59 7.68,-17.76z"/>
   <path class="fil1" d="M164.44 8.43l0 0 0.2 -0.1 0.2 -0.1 0.19 -0.11 0.01 0 0.39 -0.19 0.2 -0.1 0.02 -0.01 0.36 -0.17 0.02 -0.01 0.2 -0.09 0.05 -0.02 0.3 -0.13 0.05 -0.03 0.2 -0.08 0.01 0 0.33 -0.14 0.06 -0.03 0.21 -0.08 0 0 0.3 -0.12 0.2 -0.07 0.3 -0.12 0.34 -0.12 0.26 -0.09 0.01 0 0.21 -0.07 0.08 -0.03 0.26 -0.08 0.06 -0.02 0.21 -0.06 0.05 -0.02 0.22 -0.07 0.39 -0.11 0.2 -0.05 0.38 -0.1 0.16 -0.04 0.39 -0.1 0.21 -0.05 0.38 -0.08 0.18 -0.04 0.41 -0.08 0.15 -0.02c0.14,-0.03 0.29,-0.05 0.43,-0.08l0.12 -0.02c0.15,-0.02 0.31,-0.05 0.47,-0.07l0.11 -0.02c0.14,-0.02 0.29,-0.03 0.44,-0.05l0.08 -0.01 0.03 0c0.17,-0.02 0.33,-0.04 0.49,-0.06l0.05 0 0.03 0c0.17,-0.02 0.35,-0.03 0.53,-0.05l0 0 0.01 0 0.02 0c0.18,-0.01 0.37,-0.02 0.55,-0.03l0 0 0.02 -0.01c0.18,0 0.36,-0.01 0.54,-0.02l0.01 0c0.37,0 0.74,-0.01 1.1,0l0.02 0 0.02 0c0.17,0 0.35,0.01 0.52,0.02l0.02 0 0.01 0c0.16,0 0.32,0.01 0.48,0.02l0.04 0.01 0.02 0 0.01 0 0.04 0c3.3,0.23 6.41,1.14 9.1,2.73l0.02 0.01c0.14,0.08 0.29,0.17 0.43,0.26l0.01 0.01c0.44,0.27 0.87,0.57 1.28,0.89l0.01 0c0.14,0.11 0.27,0.21 0.41,0.32l0 0.01c0.27,0.22 0.53,0.44 0.79,0.68l0.01 0.01c0.18,0.17 0.37,0.34 0.55,0.52l2.9 3.86c0.55,0.99 1,2.01 1.34,3.07l0.01 0.04 0.01 0.02c0.05,0.16 0.1,0.32 0.15,0.48l0 0.01c0.05,0.16 0.09,0.31 0.13,0.47l0.01 0.05c0.04,0.15 0.08,0.3 0.11,0.45l0.02 0.07c0.03,0.14 0.06,0.29 0.09,0.43l0.01 0.04 0.01 0.04c0.03,0.14 0.06,0.29 0.08,0.43l0.01 0.05 0 0.03c0.03,0.15 0.05,0.29 0.07,0.44l0.02 0.09c0.02,0.15 0.04,0.3 0.06,0.45l0 0.03 0.01 0.06c0.03,0.33 0.06,0.66 0.08,0.99l0 0.01 0 0.02c0.03,0.34 0.04,0.69 0.04,1.03l0 0.01c0,0.17 0,0.35 0,0.52l0 0.06 -0.01 0.43 -0.01 0.1c-0.01,0.16 -0.01,0.32 -0.03,0.48l0 0.07 -0.03 0.42 -0.01 0.11c-0.02,0.15 -0.03,0.31 -0.05,0.47l-0.02 0.1c-0.04,0.33 -0.08,0.65 -0.13,0.98l-0.02 0.09c-0.03,0.16 -0.06,0.32 -0.09,0.48l0 0.01c-0.03,0.16 -0.06,0.32 -0.1,0.48l-0.02 0.13c-0.07,0.32 -0.15,0.64 -0.24,0.96l-0.03 0.11c-0.04,0.16 -0.08,0.32 -0.13,0.48l0 0 0 0.01c-0.05,0.16 -0.1,0.31 -0.14,0.47l-0.04 0.11c-0.05,0.16 -0.1,0.31 -0.15,0.46l-0.01 0.03 -0.02 0.05c-0.05,0.14 -0.1,0.28 -0.15,0.42l-0.04 0.1c-0.05,0.17 -0.12,0.33 -0.18,0.49l-0.01 0.04c-0.06,0.14 -0.12,0.29 -0.18,0.43l-0.05 0.11c-0.06,0.15 -0.12,0.3 -0.19,0.44l-0.07 0.16 -0.14 0.31 -0.07 0.16c-0.07,0.14 -0.14,0.29 -0.21,0.43l-0.06 0.12 -0.19 0.36 -0.06 0.12c-0.07,0.14 -0.15,0.28 -0.22,0.41l-0.09 0.16 -0.21 0.38 -0.04 0.06c-0.08,0.15 -0.17,0.29 -0.26,0.43l-0.09 0.16 -0.19 0.3 -0.13 0.2 -0.23 0.36 -0.08 0.12 -0.26 0.38 -0.04 0.05 0 0 -0.04 0.07 -0.27 0.37 -0.08 0.11c-0.11,0.14 -0.21,0.28 -0.31,0.41l-0.02 0.03 -0.04 0.05c-0.09,0.12 -0.18,0.23 -0.27,0.35l-0.11 0.13c-0.11,0.14 -0.22,0.27 -0.33,0.4l-0.08 0.1 -0.26 0.3 -0.12 0.15c-0.12,0.13 -0.24,0.27 -0.36,0.4l-0.04 0.04c-0.11,0.12 -0.23,0.25 -0.34,0.37l-0.09 0.1c-0.13,0.13 -0.26,0.26 -0.39,0.4l-0.05 0.04c-0.12,0.13 -0.24,0.25 -0.36,0.37l-0.08 0.07c-0.13,0.13 -0.27,0.26 -0.41,0.39l-0.07 0.07c-0.12,0.11 -0.25,0.23 -0.38,0.34l-0.05 0.05 -0.04 0.03c-0.13,0.13 -0.27,0.24 -0.41,0.36l-0.08 0.07c-0.15,0.13 -0.29,0.25 -0.44,0.37l-0.01 0.01 -0.02 0.02c-0.15,0.12 -0.29,0.23 -0.44,0.35l-0.09 0.07c-0.16,0.12 -0.31,0.25 -0.47,0.36l0 0 -0.01 0.01c-0.34,0.26 -0.69,0.51 -1.03,0.75l-0.04 0.02c-0.17,0.12 -0.34,0.23 -0.51,0.34l-0.01 0.01c-0.18,0.12 -0.36,0.24 -0.54,0.35l-0.01 0.01c-0.35,0.22 -0.7,0.43 -1.05,0.63l-0.09 0.05c-0.16,0.09 -0.32,0.18 -0.47,0.26l-0.05 0.03c-0.16,0.09 -0.31,0.17 -0.47,0.25l-0.11 0.06c-0.15,0.07 -0.29,0.15 -0.44,0.22l-0.1 0.05c-0.17,0.08 -0.33,0.16 -0.49,0.24l-0.04 0.01 -0.04 0.02c-0.15,0.07 -0.31,0.14 -0.46,0.21l-0.14 0.06c-0.15,0.07 -0.3,0.14 -0.46,0.2l-0.03 0.01 -0.05 0.02c-0.15,0.07 -0.31,0.13 -0.47,0.2l-0.13 0.04c-0.14,0.06 -0.29,0.12 -0.44,0.17l-0.1 0.04c-0.15,0.06 -0.31,0.11 -0.46,0.16l-0.11 0.04 -0.45 0.15 -0.13 0.04c-0.14,0.05 -0.29,0.1 -0.44,0.14l-0.07 0.02 -0.04 0.01c-0.16,0.05 -0.31,0.09 -0.47,0.14l-0.07 0.02 0 0 -0.06 0.01c-0.16,0.05 -0.32,0.09 -0.47,0.13l-0.12 0.03 -0.45 0.11 -0.13 0.03 -0.41 0.09 -0.17 0.03 -0.4 0.08 -0.17 0.03c-0.15,0.03 -0.3,0.05 -0.44,0.08l-0.08 0.01 -0.48 0.07 -0.13 0.02c-0.16,0.02 -0.32,0.04 -0.47,0.06l-0.03 0 -0.01 0.01 -0.05 0c-0.16,0.02 -0.32,0.04 -0.48,0.05l-0.14 0.01c-0.13,0.02 -0.27,0.03 -0.41,0.04l-0.15 0.01 -0.41 0.02 -0.13 0.01 -0.4 0.02 -0.17 0 -0.4 0.01 -0.15 0 -0.01 0 -0.01 0 -0.01 0 -0.02 0 -0.01 0 0 0 -0.35 0 -0.19 -0.01 -0.41 -0.01 -0.13 -0.01 -0.42 -0.02 -0.14 -0.01c-0.15,-0.01 -0.3,-0.02 -0.45,-0.03l-0.06 -0.01c-0.16,-0.01 -0.31,-0.03 -0.47,-0.05l-0.04 0 -0.03 -0.01c-0.17,-0.01 -0.33,-0.03 -0.49,-0.06l-0.01 0 -0.01 0 -0.04 -0.01c-0.17,-0.02 -0.34,-0.04 -0.5,-0.07l-0.01 0c-0.17,-0.03 -0.33,-0.06 -0.5,-0.09l-0.03 0 -0.02 -0.01c-0.15,-0.03 -0.3,-0.06 -0.45,-0.09l-0.09 -0.02c-0.16,-0.03 -0.32,-0.07 -0.48,-0.11l-0.02 -0.01c-0.16,-0.03 -0.32,-0.07 -0.48,-0.12l-0.06 -0.01c-0.15,-0.04 -0.29,-0.08 -0.44,-0.13l-0.1 -0.02c-0.14,-0.05 -0.29,-0.1 -0.44,-0.14l-0.04 -0.02c-0.15,-0.05 -0.3,-0.1 -0.45,-0.15l-0.07 -0.02c-0.15,-0.06 -0.29,-0.11 -0.44,-0.17l-0.05 -0.02c-0.15,-0.05 -0.29,-0.11 -0.44,-0.17l-0.06 -0.03c-0.14,-0.06 -0.29,-0.12 -0.43,-0.18l-0.05 -0.03c-0.14,-0.06 -0.28,-0.13 -0.42,-0.19l-0.07 -0.04c-0.14,-0.06 -0.27,-0.13 -0.41,-0.2l0 0 -0.01 -0.01 -0.03 -0.02c-0.14,-0.06 -0.27,-0.14 -0.4,-0.21l-0.03 -0.02 -0.01 0 -0.01 -0.01c-0.14,-0.07 -0.27,-0.15 -0.4,-0.23l-0.04 -0.02 -0.03 -0.01c-0.12,-0.08 -0.24,-0.15 -0.36,-0.23l-0.09 -0.05c-0.12,-0.08 -0.24,-0.16 -0.36,-0.23l-0.07 -0.05c-0.12,-0.09 -0.25,-0.17 -0.37,-0.26l-0.06 -0.04c-0.12,-0.09 -0.24,-0.18 -0.37,-0.27l-0.05 -0.05c-0.12,-0.09 -0.24,-0.18 -0.35,-0.27l-0.07 -0.06c-0.11,-0.09 -0.22,-0.18 -0.33,-0.27l-0.08 -0.07c-0.11,-0.1 -0.22,-0.19 -0.32,-0.29l-0.07 -0.06c-0.11,-0.1 -0.22,-0.2 -0.33,-0.31l-0.05 -0.05c-0.11,-0.11 -0.22,-0.22 -0.33,-0.34l-0.02 -0.01c-0.11,-0.12 -0.22,-0.24 -0.33,-0.36l-0.06 -0.06c-0.11,-0.12 -0.21,-0.23 -0.31,-0.35l0 -0.01c-0.12,-0.13 -0.23,-0.26 -0.34,-0.4l-0.01 -0.01 -0.01 -0.01c-0.1,-0.14 -0.21,-0.27 -0.32,-0.41 -2.38,-3.16 -3.53,-6.92 -3.57,-10.84l0 -0.01c0,-0.16 0,-0.32 0,-0.48l0 -0.11c0.01,-0.15 0.01,-0.3 0.02,-0.46l0 -0.06c0.01,-0.16 0.01,-0.33 0.03,-0.49l0 -0.02c0.01,-0.17 0.02,-0.34 0.04,-0.51l0 -0.02 0 0 0 -0.02c0.01,-0.14 0.03,-0.28 0.05,-0.43l0.01 -0.13c0.02,-0.15 0.04,-0.29 0.06,-0.43l0.01 -0.11c0.02,-0.14 0.05,-0.29 0.07,-0.43l0.02 -0.12c0.02,-0.15 0.05,-0.29 0.08,-0.44l0.02 -0.11c0.03,-0.14 0.06,-0.29 0.09,-0.43l0.02 -0.13c0.04,-0.14 0.07,-0.28 0.1,-0.43l0.03 -0.11c0.03,-0.13 0.07,-0.26 0.1,-0.39l0.04 -0.16c0.04,-0.13 0.08,-0.27 0.12,-0.4l0.01 -0.06 0.01 -0.02c0.04,-0.14 0.08,-0.28 0.13,-0.43l0.04 -0.14 0.13 -0.4 0.05 -0.14c0.05,-0.14 0.09,-0.27 0.14,-0.4l0.06 -0.15 0.14 -0.39 0.07 -0.17 0.16 -0.39 0.05 -0.12c0.06,-0.14 0.12,-0.28 0.18,-0.42l0.06 -0.13 0.16 -0.35 0.04 -0.08 0 0 0.03 -0.08 0.18 -0.36 0.06 -0.13 0.21 -0.4 0.06 -0.13c0.08,-0.14 0.15,-0.28 0.23,-0.42l0.06 -0.1c0.07,-0.13 0.15,-0.27 0.23,-0.4l0.07 -0.13c0.08,-0.14 0.16,-0.27 0.24,-0.4l0.06 -0.1c0.09,-0.14 0.17,-0.28 0.26,-0.42l0.06 -0.09c0.09,-0.14 0.18,-0.29 0.28,-0.43l0.01 -0.01 0.03 -0.04 0.27 -0.4 0.04 -0.06 0.01 -0.02 0.02 -0.01c0.09,-0.13 0.18,-0.26 0.27,-0.39l0.08 -0.11 0.28 -0.37 0.1 -0.14 0.29 -0.36 0.11 -0.14 0.29 -0.35 0.09 -0.11c0.1,-0.12 0.2,-0.25 0.31,-0.37l0.11 -0.12 0.32 -0.36 0.02 -0.03 0.05 -0.05 0.32 -0.35 0.06 -0.06 0 0 0.06 -0.06 0.18 -0.19 7.62 -5.74z"/>
   <path class="fil2 str0" d="M160.4 11.01l0.01 0 0.04 -0.03c0.15,-0.11 0.3,-0.22 0.45,-0.33l0.09 -0.07c0.14,-0.1 0.29,-0.21 0.43,-0.31l0.1 -0.06c0.16,-0.11 0.31,-0.21 0.46,-0.31l0.04 -0.03c0.16,-0.1 0.31,-0.2 0.46,-0.3l0.14 -0.08 0.37 -0.23 0.16 -0.1c0.14,-0.08 0.28,-0.16 0.42,-0.24l0.1 -0.06c0.14,-0.08 0.29,-0.16 0.43,-0.24l0.15 -0.09 0.42 -0.22 0.15 -0.08 0.37 -0.18 0.22 -0.12 0.41 -0.19 0.12 -0.05c0.14,-0.07 0.28,-0.13 0.42,-0.2l0.14 -0.06 0.4 -0.17 0.18 -0.08 0.4 -0.16 0.15 -0.06c0.14,-0.05 0.28,-0.1 0.41,-0.15l0.15 -0.06 0.43 -0.15 0.11 -0.04c0.16,-0.06 0.32,-0.11 0.48,-0.16l0.06 -0.02 0.02 -0.01 0.01 0c0.16,-0.05 0.32,-0.1 0.47,-0.15l0.15 -0.04 0.44 -0.13 0.14 -0.03 0.47 -0.13 0.08 -0.02 0.45 -0.11 0.15 -0.03c0.15,-0.03 0.3,-0.07 0.44,-0.1l0.1 -0.02 0.45 -0.09 0.14 -0.02c0.16,-0.03 0.31,-0.06 0.47,-0.08l0.07 -0.01c0.17,-0.03 0.34,-0.06 0.51,-0.08l0.04 -0.01 0.02 0c0.18,-0.03 0.35,-0.05 0.53,-0.07l0.01 0 0.01 0 0.03 0c0.17,-0.02 0.33,-0.04 0.5,-0.06l0.04 0 0.02 0c0.18,-0.02 0.36,-0.04 0.55,-0.05l0.01 0c0.18,-0.01 0.37,-0.02 0.55,-0.03l0.02 0c0.17,-0.01 0.35,-0.02 0.52,-0.02l0.07 -0.01c0.17,0 0.35,0 0.52,0l0.01 0c0.18,0 0.36,0 0.54,0l0.04 0c0.17,0 0.35,0.01 0.53,0.02l0.02 0c5,0.21 9.62,1.99 13.02,5.29l0.02 0.02c0.12,0.12 0.24,0.24 0.35,0.36l0.02 0.01c0.12,0.13 0.23,0.25 0.35,0.38l0.01 0.01c0.12,0.13 0.23,0.26 0.34,0.39l0.01 0.01c0.12,0.14 0.23,0.27 0.34,0.41l0 0c0.11,0.14 0.22,0.28 0.33,0.42l0 0c0.11,0.14 0.21,0.29 0.31,0.44l0 0c0.11,0.14 0.21,0.29 0.31,0.44l0 0c0.09,0.15 0.19,0.29 0.28,0.45l0 0c0.1,0.15 0.19,0.3 0.28,0.45 0.08,0.15 0.17,0.31 0.25,0.46l0 0c0.09,0.16 0.17,0.31 0.24,0.47l0 0c0.08,0.16 0.16,0.32 0.23,0.48l0 0c0.07,0.16 0.15,0.31 0.21,0.48l0 0c0.07,0.16 0.14,0.32 0.2,0.48l0 0c0.07,0.16 0.13,0.33 0.18,0.49l0 0c0.06,0.17 0.12,0.33 0.17,0.5 0.06,0.16 0.11,0.33 0.16,0.5l0 0c0.05,0.16 0.09,0.33 0.14,0.5l0 0c0.04,0.17 0.08,0.34 0.12,0.51l0 0c0.04,0.17 0.08,0.34 0.11,0.51 0.04,0.18 0.07,0.35 0.1,0.52l0 0c0.03,0.17 0.06,0.34 0.08,0.52l0 0c0.03,0.17 0.05,0.35 0.07,0.52 0.02,0.18 0.04,0.35 0.05,0.53l0 0c0.02,0.17 0.03,0.35 0.04,0.53l0 0c0.01,0.17 0.02,0.35 0.03,0.53l0 0c0.01,0.18 0.01,0.35 0.01,0.53l0 0c0,0.18 0,0.36 0,0.54l0 0c0,0.18 -0.01,0.35 -0.02,0.53l0 0c0,0.18 -0.01,0.36 -0.03,0.54l0 0c-0.01,0.18 -0.02,0.36 -0.04,0.54l0 0c-0.02,0.18 -0.03,0.36 -0.06,0.54l0 0c-0.04,0.36 -0.09,0.72 -0.15,1.08l0 0.01c-0.12,0.72 -0.28,1.44 -0.47,2.16l0 0c-0.14,0.54 -0.31,1.08 -0.49,1.62l0 0c-0.25,0.71 -0.52,1.43 -0.84,2.13l0 0c-0.07,0.18 -0.16,0.35 -0.24,0.53l0 0c-0.25,0.52 -0.51,1.05 -0.8,1.56l0 0c-0.28,0.52 -0.59,1.03 -0.91,1.54l0 0c-1.18,1.85 -2.62,3.61 -4.28,5.23l-0.01 0c-0.3,0.29 -0.61,0.58 -0.93,0.87l0 0c-0.32,0.28 -0.64,0.56 -0.98,0.84l0 0c-0.17,0.13 -0.33,0.27 -0.5,0.41l-0.01 0c-0.17,0.13 -0.34,0.26 -0.51,0.39l0 0c-0.18,0.14 -0.35,0.27 -0.53,0.39l0 0c-0.18,0.13 -0.35,0.26 -0.53,0.38 -0.18,0.12 -0.36,0.24 -0.54,0.36l0 0c-0.18,0.12 -0.36,0.23 -0.54,0.35 -0.18,0.11 -0.36,0.22 -0.54,0.33 -0.19,0.11 -0.37,0.22 -0.55,0.33 -0.19,0.1 -0.37,0.2 -0.55,0.31 -0.19,0.1 -0.37,0.2 -0.56,0.29 -0.18,0.1 -0.37,0.19 -0.56,0.28l0 0c-0.18,0.1 -0.37,0.19 -0.56,0.27 -0.19,0.09 -0.37,0.18 -0.56,0.26 -0.19,0.08 -0.38,0.16 -0.57,0.24l0 0c-0.19,0.08 -0.38,0.16 -0.57,0.23 -0.19,0.08 -0.38,0.15 -0.57,0.22l0 0c-0.19,0.07 -0.38,0.14 -0.57,0.2l0 0c-0.19,0.07 -0.38,0.13 -0.57,0.2l0 0c-0.19,0.06 -0.38,0.12 -0.57,0.17l0 0c-0.2,0.06 -0.39,0.12 -0.58,0.17l0 0c-0.19,0.05 -0.38,0.1 -0.57,0.15l0 0c-0.2,0.05 -0.39,0.09 -0.58,0.14l0 0c-0.19,0.04 -0.38,0.09 -0.57,0.12l0 0c-0.2,0.04 -0.39,0.08 -0.58,0.12l0 0c-0.19,0.03 -0.38,0.06 -0.57,0.1l0 0c-0.2,0.03 -0.39,0.06 -0.58,0.08l0 0c-0.19,0.03 -0.38,0.05 -0.57,0.08l0 0c-0.19,0.02 -0.38,0.04 -0.57,0.06l0 0c-0.19,0.02 -0.38,0.03 -0.57,0.04l0 0c-0.19,0.02 -0.38,0.03 -0.57,0.04l0 0c-0.19,0.01 -0.38,0.02 -0.56,0.02l0 0c-0.19,0.01 -0.38,0.01 -0.57,0.01l0 0c-0.18,0 -0.37,0 -0.56,-0.01l0 0c-0.18,0 -0.37,0 -0.56,-0.01l0 0c-0.18,-0.01 -0.37,-0.02 -0.55,-0.03l0 0c-0.19,-0.01 -0.37,-0.03 -0.55,-0.04l0 0c-0.18,-0.02 -0.37,-0.04 -0.55,-0.06l0 0c-0.18,-0.02 -0.36,-0.04 -0.54,-0.07l0 0c-0.18,-0.02 -0.36,-0.05 -0.54,-0.08l0 0c-0.18,-0.03 -0.36,-0.06 -0.54,-0.09l0 0c-0.18,-0.04 -0.35,-0.07 -0.53,-0.11l0 0c-0.18,-0.04 -0.35,-0.08 -0.52,-0.12l-0.01 0c-0.17,-0.05 -0.34,-0.09 -0.51,-0.14l-0.01 0c-0.17,-0.04 -0.34,-0.09 -0.51,-0.14l0 0c-0.17,-0.05 -0.34,-0.11 -0.51,-0.16l0 0c-0.17,-0.05 -0.34,-0.11 -0.5,-0.17l0 0c-0.5,-0.18 -1,-0.38 -1.47,-0.59l-0.01 0c-0.16,-0.07 -0.31,-0.15 -0.47,-0.22l0 0c-2.53,-1.22 -4.74,-2.99 -6.48,-5.28 -0.97,-1.3 -1.74,-2.69 -2.31,-4.15l0 0c-0.13,-0.33 -0.25,-0.66 -0.35,-0.99l0 0c-0.06,-0.17 -0.11,-0.33 -0.16,-0.5l0 0c-0.05,-0.17 -0.09,-0.34 -0.14,-0.51l0 0c-0.04,-0.16 -0.08,-0.33 -0.12,-0.5l0 0c-0.04,-0.18 -0.08,-0.35 -0.11,-0.52l0 0c-0.04,-0.17 -0.07,-0.34 -0.1,-0.51l0 0c-0.03,-0.18 -0.06,-0.35 -0.08,-0.52l0 0c-0.03,-0.18 -0.05,-0.35 -0.07,-0.53l0 0c-0.02,-0.17 -0.04,-0.35 -0.05,-0.52l0 0c-0.02,-0.18 -0.03,-0.35 -0.04,-0.53l0 0c-0.01,-0.18 -0.02,-0.35 -0.03,-0.53l0 0c0,-0.18 -0.01,-0.36 -0.01,-0.54 0,-0.17 0,-0.35 0,-0.53 0,-0.18 0.01,-0.36 0.02,-0.54 0,-0.18 0.01,-0.36 0.03,-0.54 0.01,-0.18 0.02,-0.36 0.04,-0.54 0.02,-0.18 0.03,-0.36 0.06,-0.54l0 0c0.02,-0.18 0.04,-0.36 0.07,-0.54l0 0c0.02,-0.18 0.05,-0.36 0.08,-0.54l0 0c0.03,-0.18 0.06,-0.36 0.1,-0.54 0.03,-0.18 0.07,-0.36 0.11,-0.54 0.04,-0.18 0.08,-0.37 0.12,-0.54l0 0c0.05,-0.19 0.09,-0.37 0.14,-0.55 0.05,-0.18 0.1,-0.36 0.15,-0.54 0.05,-0.18 0.11,-0.36 0.16,-0.54l0 0c0.06,-0.17 0.12,-0.35 0.18,-0.53l0 0c0.06,-0.18 0.12,-0.36 0.19,-0.54l0 0c0.07,-0.18 0.13,-0.36 0.2,-0.53l0 0c0.07,-0.18 0.14,-0.36 0.22,-0.54 0.07,-0.17 0.15,-0.35 0.23,-0.53l0 0c0.07,-0.17 0.16,-0.35 0.24,-0.52l0 0c0.08,-0.18 0.17,-0.35 0.25,-0.53l0 0c0.09,-0.17 0.18,-0.35 0.27,-0.52l0 0c0.09,-0.17 0.18,-0.35 0.28,-0.52 0.09,-0.17 0.19,-0.34 0.29,-0.51l0 0c0.1,-0.17 0.2,-0.34 0.3,-0.51 0.11,-0.17 0.21,-0.34 0.32,-0.51l0 0c0.11,-0.17 0.22,-0.34 0.33,-0.5l0 0c0.11,-0.17 0.23,-0.34 0.34,-0.5l0 0c0.12,-0.16 0.23,-0.33 0.35,-0.49l0 0c0.12,-0.17 0.25,-0.33 0.37,-0.49l0 0c0.12,-0.16 0.25,-0.32 0.38,-0.48l0 0c0.13,-0.16 0.25,-0.32 0.39,-0.48l0 0c0.13,-0.16 0.26,-0.32 0.4,-0.47l0 0c0.14,-0.16 0.27,-0.31 0.41,-0.47l0 0c0.14,-0.15 0.29,-0.31 0.43,-0.46l0 0c0.14,-0.15 0.29,-0.3 0.44,-0.45l0 0c0.14,-0.15 0.29,-0.3 0.45,-0.45l0 0c0.15,-0.14 0.3,-0.29 0.46,-0.43l0 0c0.15,-0.15 0.31,-0.29 0.47,-0.43l0 0c0.16,-0.15 0.32,-0.29 0.48,-0.43l0 0c0.17,-0.14 0.33,-0.28 0.5,-0.41l0 0c0.17,-0.14 0.34,-0.28 0.51,-0.41l0 0c0.17,-0.14 0.34,-0.27 0.51,-0.4"/>
   <path class="fil0" d="M173.71 29.48l3.67 -2.9c0.4,0.49 0.92,0.85 1.49,1.05 0.8,0.24 1.64,0.08 2.33,-0.44 0.48,-0.33 0.88,-0.77 1.04,-1.33 0.25,-0.73 -0.16,-1.53 -0.88,-1.77 -0.12,-0.04 -0.24,-0.08 -0.36,-0.08 -0.49,-0.04 -1.33,0.16 -2.58,0.68 -2.05,0.85 -3.66,1.17 -4.87,1.05 -1.17,-0.12 -2.25,-0.73 -2.89,-1.73 -0.49,-0.69 -0.73,-1.49 -0.77,-2.3 0,-0.92 0.24,-1.85 0.77,-2.61 0.76,-1.09 1.69,-2.02 2.81,-2.74 1.69,-1.17 3.18,-1.73 4.47,-1.73 1.29,0 2.49,0.61 3.62,1.85l-3.62 2.86c-0.73,-0.93 -2.09,-1.13 -3.02,-0.4l-0.12 0.12c-0.4,0.24 -0.68,0.6 -0.85,1.04 -0.12,0.32 -0.04,0.69 0.17,0.97 0.16,0.2 0.4,0.36 0.68,0.36 0.32,0.04 0.88,-0.12 1.69,-0.48 2.01,-0.85 3.54,-1.33 4.59,-1.49 0.88,-0.16 1.81,-0.08 2.65,0.28 0.77,0.32 1.41,0.89 1.86,1.57 0.56,0.81 0.88,1.77 0.92,2.78 0.04,1.04 -0.24,2.05 -0.81,2.93 -0.72,1.09 -1.65,2.02 -2.73,2.74 -2.21,1.53 -4.02,2.17 -5.48,1.93 -1.56,-0.24 -2.85,-1.04 -3.78,-2.21zm-12.07 -4.47l4.02 -2.81 4.95 7.04c0.85,1.12 1.49,2.33 1.98,3.66 0.28,1.01 0.2,2.09 -0.21,3.06 -0.52,1.21 -1.36,2.21 -2.49,2.94 -1.33,0.92 -2.45,1.45 -3.42,1.61 -0.93,0.16 -1.89,0 -2.78,-0.41 -0.96,-0.48 -1.81,-1.16 -2.45,-2.05l3.46 -3.22c0.28,0.45 0.64,0.85 1.05,1.17 0.28,0.2 0.6,0.32 0.96,0.32 0.28,0 0.56,-0.12 0.77,-0.28 0.4,-0.24 0.68,-0.72 0.64,-1.21 -0.12,-0.68 -0.4,-1.37 -0.85,-1.89l-5.63 -7.93z"/>
  </g>
 </g>
</svg>
